<svg xmlns="http://www.w3.org/2000/svg" viewBox="0 0 105.06 98.39"><defs><style>.cls-1{fill:#fff;}</style></defs><g id="Layer_2" data-name="Layer 2"><g id="Capa_1" data-name="Capa 1"><path class="cls-1" d="M75.61,95l2.27-14.94a1.62,1.62,0,0,1,.74-1.18h0c12.36-8,16-17.38,14.46-26a28.7,28.7,0,0,0-6.92-13.57A42.7,42.7,0,0,0,73,29.28C62.24,24,49.7,23.26,41.7,31.11a1.47,1.47,0,0,1-.48.37,1.64,1.64,0,0,1-2.21-.7h0C29.76,12.88,22.11,15.09,19.5,16.62L25.66,29a1.58,1.58,0,0,1,.23.65,1.63,1.63,0,0,1-1.4,1.84h0c-7.86,1.07-13.37,13-13.85,14.12a1.63,1.63,0,0,1-1.53,1.06H3.27V63.69h5a1.7,1.7,0,0,1,1,.3h0c18,12.71,20.1,21.71,20.29,22.72l2.25,8.39H38.1L43.34,86a1.64,1.64,0,0,1,1.49-1H58.54a1.63,1.63,0,0,1,1.27.61h0l7.41,9.17,8.39.17Zm-9.22,3.08a1.62,1.62,0,0,1-1.31-.7l-7.32-9.06h-12l-5.32,9.21h0a1.63,1.63,0,0,1-1.44.82H30.5a1.64,1.64,0,0,1-1.6-1.3l-2.58-9.6a1.85,1.85,0,0,1,0-.23c-.11-.65-1.77-8.33-18.51-20.29H1.64A1.64,1.64,0,0,1,0,65.33V45a1.63,1.63,0,0,1,1.64-1.64H8.08c1.48-3,6.49-12.18,13.81-14.63L16,16.84h0a1.65,1.65,0,0,1,.45-2c1.09-1,12.12-9.82,24.52,12.59,9.13-7.51,22.26-6.64,33.49-1.07A46.19,46.19,0,0,1,88.63,37.23a32,32,0,0,1,7.66,15.13C98,62,94.19,72.46,81,81.24L78.63,96.93h0a1.64,1.64,0,0,1-1.8,1.38l-10.45-.2Z"/><path class="cls-1" d="M23.43,40.66a5.39,5.39,0,1,1-3.8,1.58,5.35,5.35,0,0,1,3.8-1.58ZM21.33,46a2.08,2.08,0,0,0,.61,1.48,2.11,2.11,0,0,0,1.49.62,2.12,2.12,0,0,0,2.1-2.1,2.11,2.11,0,0,0-.62-1.49,2.08,2.08,0,0,0-1.48-.61,2.08,2.08,0,0,0-2.1,2.1Z"/><path class="cls-1" d="M94,61.11a1.64,1.64,0,0,1,1.77-2.75s10.52,7,3.25-16.85a1.62,1.62,0,0,1,1.08-2,1.64,1.64,0,0,1,2,1.09C112,73,94,61.14,94,61.11Z"/><path class="cls-1" d="M61.41,0A19.53,19.53,0,0,1,77.87,30.07l0,.05a1.64,1.64,0,0,1-2.24.59h0a39,39,0,0,0-16.09-5.35A23.58,23.58,0,0,0,45.87,28a2.29,2.29,0,0,1-.27.14,1.63,1.63,0,0,1-2.15-.85h0A19.55,19.55,0,0,1,61.41,0ZM45.14,19.54a16.79,16.79,0,0,0,.32,3.3c.11.5.24,1,.39,1.49A27.34,27.34,0,0,1,59.77,22.1a41.57,41.57,0,0,1,16.06,5A16.52,16.52,0,0,0,77,24.17a16.27,16.27,0,1,0-31.87-4.63Z"/><path class="cls-1" d="M60.18,22.38V19.51a11.76,11.76,0,0,1-3.52-1.33,5.34,5.34,0,0,1-2-2.06,6.15,6.15,0,0,1-.71-3A6.12,6.12,0,0,1,56,8.31,7.25,7.25,0,0,1,60.18,6.8V5.47h1.64V6.8a6.9,6.9,0,0,1,3.86,1.42,6.28,6.28,0,0,1,2.19,4.16L65,12.82a4.64,4.64,0,0,0-1-2.52,3.72,3.72,0,0,0-2.14-1.15v8a23.19,23.19,0,0,1,2.79.83,6.79,6.79,0,0,1,2.12,1.39,5.56,5.56,0,0,1,1.26,2,6.53,6.53,0,0,1,.44,2.44h0a27.09,27.09,0,0,0-2.87-.22,3.56,3.56,0,0,0-.74-2,6.56,6.56,0,0,0-3-1.65v2.28c-.54,0-1.09.13-1.64.21Zm0-13.26a4.11,4.11,0,0,0-2.56,1.3,3.59,3.59,0,0,0-.94,2.49,3.58,3.58,0,0,0,.8,2.39,5.46,5.46,0,0,0,2.7,1.53Z"/></g></g></svg>