<svg xmlns="http://www.w3.org/2000/svg" viewBox="0 0 35.2 35.26"><defs><style>.cls-1{fill:#445b5c;}</style></defs><g id="Layer_2" data-name="Layer 2"><g id="Capa_1" data-name="Capa 1"><path class="cls-1" d="M17.59,8.55a9,9,0,1,0,9,9A9,9,0,0,0,17.59,8.55Zm0,14.91a5.87,5.87,0,1,1,5.87-5.87A5.87,5.87,0,0,1,17.59,23.46Z"/><circle class="cls-1" cx="26.98" cy="8.22" r="2.11"/><path class="cls-1" d="M35.09,10.41a12.9,12.9,0,0,0-.82-4.34A9,9,0,0,0,29.13.93,13.05,13.05,0,0,0,24.85.11C23,0,22.38,0,17.6,0s-5.38,0-7.25.11A13.05,13.05,0,0,0,6.07.93,9,9,0,0,0,.93,6.07a13.05,13.05,0,0,0-.82,4.28C0,12.23,0,12.83,0,17.6S0,23,.11,24.85a13.05,13.05,0,0,0,.82,4.28,9,9,0,0,0,5.14,5.14,12.82,12.82,0,0,0,4.28.88c1.88.09,2.48.11,7.25.11s5.38,0,7.25-.11a12.8,12.8,0,0,0,4.28-.82,9,9,0,0,0,5.14-5.14,12.8,12.8,0,0,0,.82-4.28c.09-1.88.11-2.47.11-7.25S35.2,12.28,35.09,10.41Zm-3.18,14.3h0a9.55,9.55,0,0,1-.61,3.3,5.82,5.82,0,0,1-3.34,3.34,9.62,9.62,0,0,1-3.27.61c-1.85.09-2.38.11-7.14.11s-5.25,0-7.15-.11a9.61,9.61,0,0,1-3.26-.61A5.82,5.82,0,0,1,3.76,28a9.84,9.84,0,0,1-.6-3.26c-.09-1.86-.11-2.39-.11-7.15s0-5.25.11-7.14a9.73,9.73,0,0,1,.6-3.3A5.87,5.87,0,0,1,7.12,3.81a9.85,9.85,0,0,1,3.26-.61c1.86-.08,2.39-.1,7.15-.1s5.25,0,7.14.1a9.87,9.87,0,0,1,3.27.61,5.83,5.83,0,0,1,3.34,3.35,9.56,9.56,0,0,1,.61,3.26c.08,1.86.11,2.38.11,7.14S32,22.84,31.91,24.71Z"/></g></g></svg>