<svg xmlns="http://www.w3.org/2000/svg" viewBox="0 0 285.82 79.16"><defs><style>.cls-1{fill:#fff;}</style></defs><g id="Layer_2" data-name="Layer 2"><g id="Capa_1" data-name="Capa 1"><path class="cls-1" d="M0,34.08V79.16H39V4.87L34.08,0ZM34.08,74.19H5.22V36L34.08,7.16Z"/><polygon class="cls-1" points="43.82 79.16 48.69 79.16 48.69 14.61 43.82 9.74 43.82 79.16"/><polygon class="cls-1" points="53.55 79.16 58.42 79.16 58.42 24.34 53.55 19.48 53.55 79.16"/><polygon class="cls-1" points="63.29 29.21 63.29 79.16 68.16 79.16 68.16 34.08 63.29 29.21"/><path class="cls-1" d="M86.36,50.7a9,9,0,0,1,.55-3A8.41,8.41,0,0,1,88.51,45,8.19,8.19,0,0,1,91.08,43a7.81,7.81,0,0,1,3.45-.74,7.36,7.36,0,0,1,4,1A6.42,6.42,0,0,1,101,46l-3,2.11A3.51,3.51,0,0,0,97.28,47a3.66,3.66,0,0,0-.88-.71,3.43,3.43,0,0,0-1-.38,4.31,4.31,0,0,0-1-.11,3.53,3.53,0,0,0-1.82.45,4.16,4.16,0,0,0-1.26,1.17A5.2,5.2,0,0,0,90.6,49a7.16,7.16,0,0,0-.25,1.84,6.23,6.23,0,0,0,.3,1.93,5.58,5.58,0,0,0,.84,1.65,4,4,0,0,0,1.3,1.14,3.59,3.59,0,0,0,1.7.41,3.91,3.91,0,0,0,1-.13,4.2,4.2,0,0,0,1-.4,3.66,3.66,0,0,0,.86-.72A3.7,3.7,0,0,0,98,53.64l3.23,1.89a5.17,5.17,0,0,1-1.12,1.67,6.38,6.38,0,0,1-1.66,1.24,8.4,8.4,0,0,1-2,.77,8.52,8.52,0,0,1-2,.26,7,7,0,0,1-3.24-.75,8.21,8.21,0,0,1-2.53-2A9.25,9.25,0,0,1,87,53.9,8.9,8.9,0,0,1,86.36,50.7Z"/><path class="cls-1" d="M108.67,59.33v-17h3.92V55.89h8.22v3.44Z"/><path class="cls-1" d="M128.3,59.33v-17h3.92v17Z"/><path class="cls-1" d="M139.71,50.7a8.76,8.76,0,0,1,.55-3,8.41,8.41,0,0,1,1.6-2.71A8.19,8.19,0,0,1,144.43,43a7.81,7.81,0,0,1,3.45-.74,7.32,7.32,0,0,1,3.94,1A6.38,6.38,0,0,1,154.31,46l-3,2.11a3.43,3.43,0,0,0-1.56-1.83,3.22,3.22,0,0,0-1-.38,4.16,4.16,0,0,0-1-.11,3.51,3.51,0,0,0-1.82.45,4.31,4.31,0,0,0-1.27,1.17A5.41,5.41,0,0,0,144,49a6.75,6.75,0,0,0-.25,1.84,6.23,6.23,0,0,0,.3,1.93,5.58,5.58,0,0,0,.84,1.65,3.94,3.94,0,0,0,1.3,1.14,3.55,3.55,0,0,0,1.69.41,3.85,3.85,0,0,0,1-.13,4.1,4.1,0,0,0,1-.4,3.87,3.87,0,0,0,.86-.72,3.7,3.7,0,0,0,.62-1.09l3.22,1.89a5,5,0,0,1-1.11,1.67,6.55,6.55,0,0,1-1.66,1.24,8.51,8.51,0,0,1-4,1,7,7,0,0,1-3.24-.75,8.21,8.21,0,0,1-2.53-2,9.25,9.25,0,0,1-1.66-2.82A8.9,8.9,0,0,1,139.71,50.7Z"/><path class="cls-1" d="M162,59.33v-17h3.91V50l6.55-7.64h4.06l-6.35,7.57L177,59.33h-4.13l-5-7.19-1.94,2.1v5.09Z"/><path class="cls-1" d="M199.06,42.37v17h-3.92V52.38h-6.76v6.95h-3.92v-17h3.92v6.57h6.76V42.37Z"/><path class="cls-1" d="M214.63,59.47a7.34,7.34,0,0,1-3.3-.74,8.25,8.25,0,0,1-2.54-1.95A8.74,8.74,0,0,1,207.14,54a9,9,0,0,1-.58-3.2,8.81,8.81,0,0,1,2.3-6A8.21,8.21,0,0,1,211.44,43a7.55,7.55,0,0,1,3.26-.71A7.34,7.34,0,0,1,218,43a8.32,8.32,0,0,1,2.54,2,8.8,8.8,0,0,1,1.64,2.77,9.12,9.12,0,0,1,.57,3.15,8.7,8.7,0,0,1-.61,3.23,8.61,8.61,0,0,1-1.68,2.74,8.24,8.24,0,0,1-2.57,1.89A7.38,7.38,0,0,1,214.63,59.47Zm-4.09-8.6a6.72,6.72,0,0,0,.28,1.9,5.54,5.54,0,0,0,.79,1.64,3.83,3.83,0,0,0,1.29,1.14,3.58,3.58,0,0,0,1.78.43,3.47,3.47,0,0,0,1.79-.45,4.13,4.13,0,0,0,1.28-1.18,5.41,5.41,0,0,0,.76-1.65,7,7,0,0,0,.25-1.88,6.76,6.76,0,0,0-.27-1.9,5.33,5.33,0,0,0-.8-1.62,4,4,0,0,0-1.29-1.12,3.86,3.86,0,0,0-3.54,0,4.18,4.18,0,0,0-1.28,1.16,5.17,5.17,0,0,0-.77,1.64A6.56,6.56,0,0,0,210.54,50.87Z"/><path class="cls-1" d="M237.77,56a3.08,3.08,0,0,0,2.82-1.53,4.69,4.69,0,0,0,.61-1.58,9.31,9.31,0,0,0,.18-1.83V42.37h3.92V51a11.9,11.9,0,0,1-.44,3.29A7.56,7.56,0,0,1,243.49,57a6.28,6.28,0,0,1-2.34,1.8,9,9,0,0,1-6.84,0A6.41,6.41,0,0,1,232,56.93a7.69,7.69,0,0,1-1.32-2.69,12.47,12.47,0,0,1-.41-3.2V42.37h3.91V51a8.62,8.62,0,0,0,.2,1.86,4.7,4.7,0,0,0,.62,1.58,3.16,3.16,0,0,0,1.11,1.1A3.22,3.22,0,0,0,237.77,56Z"/><path class="cls-1" d="M264.19,47.34a3.1,3.1,0,0,0-.53-.36,8.71,8.71,0,0,0-1.07-.55,10.11,10.11,0,0,0-1.41-.5,5.39,5.39,0,0,0-1.53-.22,2.74,2.74,0,0,0-1.54.36,1.18,1.18,0,0,0-.54,1,1.08,1.08,0,0,0,.24.72,2.09,2.09,0,0,0,.68.51,6.37,6.37,0,0,0,1.1.42l1.51.43a17.71,17.71,0,0,1,2.2.73,5.89,5.89,0,0,1,1.67,1A3.84,3.84,0,0,1,266,52.33a5.67,5.67,0,0,1-.17,4.43,4.58,4.58,0,0,1-1.42,1.6,5.87,5.87,0,0,1-2,.88,10,10,0,0,1-2.38.28,13.83,13.83,0,0,1-1.9-.14,14.94,14.94,0,0,1-1.9-.42,15.58,15.58,0,0,1-1.81-.66,9.72,9.72,0,0,1-1.63-.88L254.51,54a5,5,0,0,0,.65.45,8.5,8.5,0,0,0,1.29.67,11.12,11.12,0,0,0,1.72.6,7,7,0,0,0,1.93.26c1.39,0,2.08-.42,2.08-1.26a1.06,1.06,0,0,0-.31-.79,2.85,2.85,0,0,0-.86-.56,9.06,9.06,0,0,0-1.29-.47l-1.63-.48a14.47,14.47,0,0,1-2-.77,5.52,5.52,0,0,1-1.43-1,3.47,3.47,0,0,1-.85-1.27,4.68,4.68,0,0,1-.27-1.67,5.22,5.22,0,0,1,.5-2.36,5.07,5.07,0,0,1,1.36-1.74,5.9,5.9,0,0,1,2-1.06,7.83,7.83,0,0,1,2.4-.36,9.29,9.29,0,0,1,1.76.17,13.09,13.09,0,0,1,1.64.43,12.19,12.19,0,0,1,1.47.6,11.74,11.74,0,0,1,1.24.67Z"/><path class="cls-1" d="M285.82,55.89v3.44H273.9v-17h11.71v3.44h-7.79V49.1h6.69v3.18h-6.69v3.61Z"/><path class="cls-1" d="M92.39,72.54H89.84v6.54h-.93V72.54H86.36v-.83h6Z"/><path class="cls-1" d="M96.48,78.29A2,2,0,0,0,97.55,78a1.85,1.85,0,0,0,.68-.65,2.63,2.63,0,0,0,.36-.91,5.17,5.17,0,0,0,.11-1V71.71h.93v3.73a5.86,5.86,0,0,1-.17,1.41A3.29,3.29,0,0,1,98.91,78a2.65,2.65,0,0,1-1,.81,3.21,3.21,0,0,1-1.45.29A3.15,3.15,0,0,1,95,78.82,2.69,2.69,0,0,1,94,78a3.22,3.22,0,0,1-.53-1.19,5.65,5.65,0,0,1-.16-1.37V71.71h.93v3.73a5.29,5.29,0,0,0,.11,1.06,2.63,2.63,0,0,0,.36.91,2,2,0,0,0,.68.64A2.09,2.09,0,0,0,96.48,78.29Z"/><path class="cls-1" d="M103.89,79.08V71.71h.94v6.54h4.11v.83Z"/><path class="cls-1" d="M112.64,78.29a2.07,2.07,0,0,0,1.07-.25,1.93,1.93,0,0,0,.68-.65,2.63,2.63,0,0,0,.36-.91,5.16,5.16,0,0,0,.1-1V71.71h.94v3.73a5.39,5.39,0,0,1-.18,1.41,3.27,3.27,0,0,1-.54,1.18,2.65,2.65,0,0,1-1,.81,3.75,3.75,0,0,1-2.94,0,2.78,2.78,0,0,1-1-.82,3.58,3.58,0,0,1-.53-1.19,5.65,5.65,0,0,1-.16-1.37V71.71h.94v3.73a5.29,5.29,0,0,0,.1,1.06,2.85,2.85,0,0,0,.37.91,2,2,0,0,0,.67.64A2.13,2.13,0,0,0,112.64,78.29Z"/><path class="cls-1" d="M122.66,78.09a3,3,0,0,1-2.24,1,2.91,2.91,0,0,1-1.37-.32A3.42,3.42,0,0,1,118,78a3.84,3.84,0,0,1-.72-1.2,3.75,3.75,0,0,1-.27-1.4,3.88,3.88,0,0,1,.26-1.41,3.68,3.68,0,0,1,.72-1.19,3.38,3.38,0,0,1,1.09-.81,3,3,0,0,1,1.37-.31,3.17,3.17,0,0,1,1.76.45,3,3,0,0,1,1,1.16l-.71.5a2.22,2.22,0,0,0-.89-1,2.39,2.39,0,0,0-1.23-.31,2.16,2.16,0,0,0-1,.24,2.67,2.67,0,0,0-.78.64,3.19,3.19,0,0,0-.5.93,3.3,3.3,0,0,0-.17,1.08,3.18,3.18,0,0,0,.19,1.12,3.07,3.07,0,0,0,.54.93,2.58,2.58,0,0,0,.81.62,2.21,2.21,0,0,0,1,.23,2.76,2.76,0,0,0,2.17-1.16v-1h-1.59V75.4h2.38v3.68h-.79Z"/><path class="cls-1" d="M124.13,79.08l3-7.37h.77l3,7.37h-1l-.88-2.16H126l-.86,2.16Zm3.42-6.29-1.38,3.4h2.71Z"/><path class="cls-1" d="M131.94,79.08V71.71h3.16a2,2,0,0,1,.9.2,2.06,2.06,0,0,1,.7.54,2.48,2.48,0,0,1,.47.76,2.29,2.29,0,0,1,.16.85,2.35,2.35,0,0,1-.11.75,2.17,2.17,0,0,1-.31.65,2.11,2.11,0,0,1-.49.5,2.22,2.22,0,0,1-.64.3l1.79,2.82h-1.06l-1.68-2.65h-2v2.65Zm.94-3.48h2.23a1.11,1.11,0,0,0,.52-.12,1.32,1.32,0,0,0,.4-.34,1.64,1.64,0,0,0,.26-.49,1.66,1.66,0,0,0,.1-.59,1.62,1.62,0,0,0-.11-.58A1.59,1.59,0,0,0,136,73a1.37,1.37,0,0,0-.43-.33,1.13,1.13,0,0,0-.51-.12h-2.17Z"/><path class="cls-1" d="M138.61,79.08V77.92h.77v1.16Z"/><path class="cls-1" d="M148.57,72.54H146v6.54h-.94V72.54h-2.54v-.83h6Z"/><path class="cls-1" d="M152.67,78.29a2.07,2.07,0,0,0,1.07-.25,1.93,1.93,0,0,0,.68-.65,2.63,2.63,0,0,0,.36-.91,6,6,0,0,0,.1-1V71.71h.93v3.73a5.4,5.4,0,0,1-.17,1.41A3.27,3.27,0,0,1,155.1,78a2.74,2.74,0,0,1-1,.81,3.24,3.24,0,0,1-1.45.29,3.19,3.19,0,0,1-1.49-.31,2.78,2.78,0,0,1-1-.82,3.39,3.39,0,0,1-.53-1.19,5.65,5.65,0,0,1-.16-1.37V71.71h.93v3.73a5.29,5.29,0,0,0,.11,1.06,2.85,2.85,0,0,0,.37.91,2,2,0,0,0,.67.64A2.11,2.11,0,0,0,152.67,78.29Z"/><path class="cls-1" d="M165.08,78.25v.83h-5V71.71H165v.83h-4v2.39h3.46v.78H161v2.54Z"/><path class="cls-1" d="M170.65,73.25a1.61,1.61,0,0,0-.33-.28,3,3,0,0,0-.47-.24,3.83,3.83,0,0,0-.57-.18,3.24,3.24,0,0,0-.64-.06,2,2,0,0,0-1.26.32,1.08,1.08,0,0,0-.4.88,1,1,0,0,0,.12.5.91.91,0,0,0,.36.34,2.87,2.87,0,0,0,.6.24l.87.22a8,8,0,0,1,1,.29,3.06,3.06,0,0,1,.79.39,1.66,1.66,0,0,1,.5.59,2.14,2.14,0,0,1,0,1.76,1.85,1.85,0,0,1-.57.64,2.4,2.4,0,0,1-.84.38,4.47,4.47,0,0,1-1.06.12,4.83,4.83,0,0,1-1.62-.27,4.45,4.45,0,0,1-1.38-.77l.44-.79a3.39,3.39,0,0,0,.43.35,3.87,3.87,0,0,0,.61.32,4.68,4.68,0,0,0,.72.23,4.3,4.3,0,0,0,.82.08A2.23,2.23,0,0,0,170,78a.9.9,0,0,0,.44-.84.94.94,0,0,0-.14-.52,1.14,1.14,0,0,0-.41-.37,2.81,2.81,0,0,0-.67-.28l-.91-.24c-.37-.09-.7-.19-1-.29a2.79,2.79,0,0,1-.71-.38,1.38,1.38,0,0,1-.43-.53,1.66,1.66,0,0,1-.14-.74,2.13,2.13,0,0,1,.19-.94,1.92,1.92,0,0,1,.55-.68,2.52,2.52,0,0,1,.85-.43,4.08,4.08,0,0,1,2.41.09,4,4,0,0,1,1.07.62Z"/><path class="cls-1" d="M172.67,79.08V71.71h3.07a2,2,0,0,1,.9.2,2.2,2.2,0,0,1,.71.54,2.66,2.66,0,0,1,.46.76,2.29,2.29,0,0,1,.16.85,2.68,2.68,0,0,1-.15.89,2.74,2.74,0,0,1-.44.76,2.27,2.27,0,0,1-.69.53,2,2,0,0,1-.89.19h-2.2v2.65Zm.93-3.48h2.15a1.18,1.18,0,0,0,.53-.12,1.38,1.38,0,0,0,.4-.33,1.62,1.62,0,0,0,.25-.49,1.77,1.77,0,0,0,0-1.2,1.59,1.59,0,0,0-.29-.49,1.34,1.34,0,0,0-.43-.32,1.26,1.26,0,0,0-.51-.11H173.6Z"/><path class="cls-1" d="M177.85,79.08l3-7.37h.77l3,7.37h-1l-.87-2.16h-3.1l-.86,2.16Zm3.42-6.29-1.37,3.4h2.7Z"/><path class="cls-1" d="M185.19,75.34a3.84,3.84,0,0,1,.24-1.32,3.61,3.61,0,0,1,.68-1.19,3.33,3.33,0,0,1,1.11-.84,3.27,3.27,0,0,1,1.49-.33,3.09,3.09,0,0,1,1.69.45,2.85,2.85,0,0,1,1,1.16l-.74.48a2.11,2.11,0,0,0-.4-.59,1.83,1.83,0,0,0-.51-.38,2,2,0,0,0-.56-.21,2.93,2.93,0,0,0-.58-.06,2.24,2.24,0,0,0-1.08.25,2.47,2.47,0,0,0-.8.67,3,3,0,0,0-.48.92,3.35,3.35,0,0,0-.16,1,3.16,3.16,0,0,0,.19,1.11,3.07,3.07,0,0,0,.54.93,2.5,2.5,0,0,0,.81.64,2.19,2.19,0,0,0,1,.24,2.44,2.44,0,0,0,.59-.07,2.49,2.49,0,0,0,.59-.23,2.54,2.54,0,0,0,.52-.41,1.76,1.76,0,0,0,.4-.59l.78.43a2.13,2.13,0,0,1-.49.73,3.23,3.23,0,0,1-.72.54,4.08,4.08,0,0,1-.84.33,3.37,3.37,0,0,1-.88.11,3,3,0,0,1-1.39-.33,3.68,3.68,0,0,1-1.09-.86,4.05,4.05,0,0,1-.72-1.22A3.93,3.93,0,0,1,185.19,75.34Z"/><path class="cls-1" d="M192.76,79.08V71.72h.93v7.36Z"/><path class="cls-1" d="M198.47,79.13a3.18,3.18,0,0,1-1.42-.31A3.46,3.46,0,0,1,196,78a3.81,3.81,0,0,1-.71-1.2,3.88,3.88,0,0,1-.25-1.39,3.76,3.76,0,0,1,.27-1.41,3.71,3.71,0,0,1,.73-1.19,3.51,3.51,0,0,1,1.11-.83,3.17,3.17,0,0,1,1.38-.31,3,3,0,0,1,1.41.33,3.72,3.72,0,0,1,1.1.86A4,4,0,0,1,202,75.4,3.87,3.87,0,0,1,201,78a3.72,3.72,0,0,1-1.1.82A3.24,3.24,0,0,1,198.47,79.13ZM196,75.39a3.32,3.32,0,0,0,.18,1.09,3,3,0,0,0,.51.93,2.49,2.49,0,0,0,.8.64,2.24,2.24,0,0,0,1,.24,2.16,2.16,0,0,0,1.06-.25,2.58,2.58,0,0,0,.8-.67,3,3,0,0,0,.49-.93,3.13,3.13,0,0,0,.18-1,3.07,3.07,0,0,0-.19-1.08,2.83,2.83,0,0,0-.52-.93,2.46,2.46,0,0,0-.8-.63,2.13,2.13,0,0,0-1-.24,2.18,2.18,0,0,0-1.06.25,2.48,2.48,0,0,0-.79.65,3.06,3.06,0,0,0-.51.92A3.51,3.51,0,0,0,196,75.39Z"/><path class="cls-1" d="M202.87,79.08V77.92h.76v1.16Z"/></g></g></svg>