<svg xmlns="http://www.w3.org/2000/svg" viewBox="0 0 453.14 125.49"><defs><style>.cls-1{fill:#a3c543;}.cls-2{fill:#445b5c;}</style></defs><g id="Layer_2" data-name="Layer 2"><g id="Capa_1" data-name="Capa 1"><path class="cls-1" d="M0,54v71.46H61.75V7.72L54,0Zm54,63.59H8.28V57.11L54,11.36Z"/><polygon class="cls-1" points="69.47 125.49 77.19 125.49 77.19 23.16 69.47 15.44 69.47 125.49"/><polygon class="cls-1" points="84.91 125.49 92.63 125.49 92.63 38.59 84.91 30.88 84.91 125.49"/><polygon class="cls-1" points="100.34 46.31 100.34 125.49 108.06 125.49 108.06 54.03 100.34 46.31"/><path class="cls-2" d="M136.92,80.39a14.08,14.08,0,0,1,.87-4.83,13.22,13.22,0,0,1,2.54-4.3,12.9,12.9,0,0,1,4.07-3.07A12.39,12.39,0,0,1,149.88,67a11.72,11.72,0,0,1,6.24,1.62,10.17,10.17,0,0,1,3.94,4.25l-4.77,3.33a5.61,5.61,0,0,0-1.06-1.76,5.94,5.94,0,0,0-1.4-1.14,5.3,5.3,0,0,0-1.57-.6,7.18,7.18,0,0,0-1.54-.17,5.48,5.48,0,0,0-2.87.72,6.36,6.36,0,0,0-2,1.85,8.49,8.49,0,0,0-1.2,2.58,11.09,11.09,0,0,0-.39,2.91,9.85,9.85,0,0,0,.47,3.07,8.68,8.68,0,0,0,1.33,2.61,6.23,6.23,0,0,0,2.06,1.8,5.42,5.42,0,0,0,2.69.67,6.34,6.34,0,0,0,3.14-.86,5.23,5.23,0,0,0,1.37-1.13,5.55,5.55,0,0,0,1-1.73l5.11,3a8.13,8.13,0,0,1-1.76,2.65,10.9,10.9,0,0,1-2.63,2,13.55,13.55,0,0,1-3.12,1.21,13.1,13.1,0,0,1-3.24.42,11,11,0,0,1-5.13-1.2,12.93,12.93,0,0,1-4-3.16,14.93,14.93,0,0,1-2.63-4.47A14.27,14.27,0,0,1,136.92,80.39Z"/><path class="cls-2" d="M172.29,94.06V67.17h6.21V88.61h13v5.45Z"/><path class="cls-2" d="M203.41,94.06V67.17h6.21V94.06Z"/><path class="cls-2" d="M221.5,80.39a14.08,14.08,0,0,1,.87-4.83,13.22,13.22,0,0,1,2.54-4.3A12.79,12.79,0,0,1,229,68.19,12.35,12.35,0,0,1,234.45,67a11.75,11.75,0,0,1,6.25,1.62,10.24,10.24,0,0,1,3.94,4.25l-4.77,3.33a5.61,5.61,0,0,0-1.06-1.76,5.94,5.94,0,0,0-1.4-1.14,5.25,5.25,0,0,0-1.58-.6,7,7,0,0,0-1.53-.17,5.55,5.55,0,0,0-2.88.72,6.36,6.36,0,0,0-2,1.85,8.47,8.47,0,0,0-1.19,2.58,11.1,11.1,0,0,0-.4,2.91,9.86,9.86,0,0,0,.48,3.07,8.44,8.44,0,0,0,1.32,2.61,6.36,6.36,0,0,0,2.07,1.8,5.4,5.4,0,0,0,2.69.67,6.35,6.35,0,0,0,1.57-.21,6.44,6.44,0,0,0,1.57-.65,5.19,5.19,0,0,0,1.36-1.13,5.56,5.56,0,0,0,1-1.73L245,88a8.13,8.13,0,0,1-1.76,2.65,11.1,11.1,0,0,1-2.63,2,13.81,13.81,0,0,1-3.13,1.21,13.1,13.1,0,0,1-3.24.42,11.08,11.08,0,0,1-5.13-1.2,13,13,0,0,1-4-3.16,15,15,0,0,1-2.64-4.47A14.26,14.26,0,0,1,221.5,80.39Z"/><path class="cls-2" d="M256.86,94.06V67.17h6.21V79.29l10.38-12.12h6.44l-10.08,12,10.76,14.89H274l-7.88-11.4L263.07,86v8.07Z"/><path class="cls-2" d="M315.59,67.17V94.06h-6.21V83H298.66v11h-6.21V67.17h6.21V77.58h10.72V67.17Z"/><path class="cls-2" d="M340.28,94.29a11.56,11.56,0,0,1-5.23-1.18A13.07,13.07,0,0,1,331,90a14.07,14.07,0,0,1-2.62-4.38,14.22,14.22,0,0,1-.93-5.07,14,14,0,0,1,1-5.12,13.67,13.67,0,0,1,2.69-4.33,13.17,13.17,0,0,1,4.09-3A12,12,0,0,1,340.39,67a11.58,11.58,0,0,1,5.23,1.17,13,13,0,0,1,4,3.11,13.85,13.85,0,0,1,2.59,4.39,14.25,14.25,0,0,1,.91,5,13.92,13.92,0,0,1-1,5.11,14.23,14.23,0,0,1-2.67,4.34,13.27,13.27,0,0,1-4.07,3A11.79,11.79,0,0,1,340.28,94.29ZM333.8,80.65a10.43,10.43,0,0,0,.43,3,8.83,8.83,0,0,0,1.25,2.6,6.25,6.25,0,0,0,2,1.81,5.66,5.66,0,0,0,2.82.69,5.45,5.45,0,0,0,2.84-.72,6.51,6.51,0,0,0,2-1.88,8.22,8.22,0,0,0,1.21-2.61,11,11,0,0,0,.4-3,10.56,10.56,0,0,0-.44-3A8,8,0,0,0,345.12,75a6.12,6.12,0,0,0-2-1.78,5.7,5.7,0,0,0-2.77-.66,5.56,5.56,0,0,0-2.84.7,6.32,6.32,0,0,0-2,1.83,8.1,8.1,0,0,0-1.23,2.6A10.66,10.66,0,0,0,333.8,80.65Z"/><path class="cls-2" d="M377,88.76a5,5,0,0,0,4.47-2.43,7.4,7.4,0,0,0,1-2.52,14.6,14.6,0,0,0,.28-2.89V67.17h6.22V80.92a18.55,18.55,0,0,1-.71,5.22A11.88,11.88,0,0,1,386,90.38a10,10,0,0,1-3.72,2.86,14.23,14.23,0,0,1-10.85,0,10.16,10.16,0,0,1-3.69-2.94A11.93,11.93,0,0,1,365.7,86a18.8,18.8,0,0,1-.67-5.07V67.17h6.22V80.92a14.05,14.05,0,0,0,.3,3,7.91,7.91,0,0,0,1,2.5,5.23,5.23,0,0,0,1.76,1.74A5.13,5.13,0,0,0,377,88.76Z"/><path class="cls-2" d="M418.84,75.05a5.36,5.36,0,0,0-.83-.57,14.11,14.11,0,0,0-1.71-.87,15.7,15.7,0,0,0-2.23-.8,8.83,8.83,0,0,0-2.42-.34,4.42,4.42,0,0,0-2.45.57,1.86,1.86,0,0,0-.85,1.66,1.72,1.72,0,0,0,.38,1.14,3.4,3.4,0,0,0,1.08.82,10,10,0,0,0,1.74.66L414,78a33,33,0,0,1,3.48,1.15,9.61,9.61,0,0,1,2.65,1.56A6.25,6.25,0,0,1,421.78,83a7.89,7.89,0,0,1,.58,3.18,8,8,0,0,1-.85,3.85,7.28,7.28,0,0,1-2.25,2.54,9.68,9.68,0,0,1-3.24,1.4,16.26,16.26,0,0,1-3.77.43,19.44,19.44,0,0,1-3-.23,21.81,21.81,0,0,1-3-.66,25.26,25.26,0,0,1-2.88-1,15.39,15.39,0,0,1-2.57-1.4l2.72-5.42a7.67,7.67,0,0,0,1,.72,14.3,14.3,0,0,0,2.05,1.06,19.7,19.7,0,0,0,2.73,1,11.42,11.42,0,0,0,3.07.42c2.19,0,3.29-.67,3.29-2a1.68,1.68,0,0,0-.49-1.25,4.45,4.45,0,0,0-1.37-.89,14.8,14.8,0,0,0-2-.74l-2.58-.76A23.21,23.21,0,0,1,406,81.88a9,9,0,0,1-2.27-1.53,5.5,5.5,0,0,1-1.34-2,7.39,7.39,0,0,1-.44-2.65,8.47,8.47,0,0,1,.8-3.75,8.11,8.11,0,0,1,2.16-2.75A9.39,9.39,0,0,1,408,67.51a12.53,12.53,0,0,1,3.8-.57,14.47,14.47,0,0,1,2.81.27,18.51,18.51,0,0,1,2.59.68,21.36,21.36,0,0,1,2.33.94c.73.36,1.39.71,2,1.06Z"/><path class="cls-2" d="M453.14,88.61v5.45h-18.9V67.17H452.8v5.45H440.46v5.23h10.6v5h-10.6v5.72Z"/><path class="cls-1" d="M146.48,115h-4v10.38H141V115h-4v-1.32h9.56Z"/><path class="cls-1" d="M153,124.13a3.33,3.33,0,0,0,1.69-.4,3.14,3.14,0,0,0,1.08-1,4.15,4.15,0,0,0,.57-1.45,8.24,8.24,0,0,0,.16-1.65v-5.92H158v5.92a9,9,0,0,1-.28,2.24,5.35,5.35,0,0,1-.86,1.87,4.19,4.19,0,0,1-1.54,1.28,5.87,5.87,0,0,1-4.65,0,4.29,4.29,0,0,1-1.54-1.31,5.36,5.36,0,0,1-.84-1.88,9.35,9.35,0,0,1-.26-2.18v-5.92h1.48v5.92a7.72,7.72,0,0,0,.18,1.68,4.15,4.15,0,0,0,.57,1.45,3.24,3.24,0,0,0,1.07,1A3.31,3.31,0,0,0,153,124.13Z"/><path class="cls-1" d="M164.71,125.38v-11.7h1.48v10.38h6.52v1.32Z"/><path class="cls-1" d="M178.58,124.13a3.33,3.33,0,0,0,1.69-.4,3.14,3.14,0,0,0,1.08-1,4.15,4.15,0,0,0,.57-1.45,8.25,8.25,0,0,0,.17-1.65v-5.92h1.48v5.92a9,9,0,0,1-.27,2.24,5.37,5.37,0,0,1-.87,1.87,4.11,4.11,0,0,1-1.54,1.28,5.87,5.87,0,0,1-4.65,0,4.29,4.29,0,0,1-1.54-1.31,5.36,5.36,0,0,1-.84-1.88,9.35,9.35,0,0,1-.26-2.18v-5.92h1.49v5.92a7.72,7.72,0,0,0,.17,1.68,4.35,4.35,0,0,0,.57,1.45,3.18,3.18,0,0,0,1.08,1A3.25,3.25,0,0,0,178.58,124.13Z"/><path class="cls-1" d="M194.47,123.8a4.73,4.73,0,0,1-3.56,1.66,4.65,4.65,0,0,1-2.16-.51,5.66,5.66,0,0,1-1.72-1.34,6.44,6.44,0,0,1-1.15-1.9,6,6,0,0,1-.42-2.21,6.18,6.18,0,0,1,1.55-4.13,5.41,5.41,0,0,1,1.73-1.29,5,5,0,0,1,2.17-.48,5.12,5.12,0,0,1,2.8.71,4.76,4.76,0,0,1,1.67,1.84l-1.14.79a3.55,3.55,0,0,0-1.4-1.51,3.88,3.88,0,0,0-2-.49,3.33,3.33,0,0,0-1.61.38,4,4,0,0,0-1.24,1,5,5,0,0,0-.79,1.47,5.26,5.26,0,0,0-.28,1.72,4.92,4.92,0,0,0,.31,1.77,5,5,0,0,0,.86,1.47,4,4,0,0,0,1.28,1,3.57,3.57,0,0,0,1.62.37,4.44,4.44,0,0,0,3.44-1.85v-1.61H192v-1.12h3.77v5.83h-1.25Z"/><path class="cls-1" d="M196.79,125.38l4.81-11.7h1.22l4.79,11.7H206L204.65,122h-4.91l-1.37,3.43Zm5.42-10L200,120.8h4.28Z"/><path class="cls-1" d="M209.18,125.38v-11.7h5a3.09,3.09,0,0,1,1.42.33,3.47,3.47,0,0,1,1.12.85,4.11,4.11,0,0,1,.73,1.2,3.62,3.62,0,0,1,.27,1.36,3.88,3.88,0,0,1-.18,1.18,3.62,3.62,0,0,1-.49,1,3.21,3.21,0,0,1-.77.79,3.09,3.09,0,0,1-1,.48l2.84,4.48h-1.68l-2.67-4.2h-3.1v4.2Zm1.48-5.52h3.54a1.73,1.73,0,0,0,.83-.2,2,2,0,0,0,.64-.53,2.89,2.89,0,0,0,.56-1.71,2.53,2.53,0,0,0-.64-1.7,2,2,0,0,0-.67-.53,1.8,1.8,0,0,0-.82-.19h-3.44Z"/><path class="cls-1" d="M219.75,125.38v-1.85H221v1.85Z"/><path class="cls-1" d="M235.55,115h-4v10.38H230V115h-4v-1.32h9.55Z"/><path class="cls-1" d="M242,124.13a3.33,3.33,0,0,0,1.69-.4,3.14,3.14,0,0,0,1.08-1,4.15,4.15,0,0,0,.57-1.45,8.25,8.25,0,0,0,.17-1.65v-5.92H247v5.92a9,9,0,0,1-.27,2.24,5.2,5.2,0,0,1-.87,1.87,4.11,4.11,0,0,1-1.54,1.28,5.87,5.87,0,0,1-4.65,0,4.29,4.29,0,0,1-1.54-1.31,5.36,5.36,0,0,1-.84-1.88,9.35,9.35,0,0,1-.26-2.18v-5.92h1.49v5.92a7.72,7.72,0,0,0,.17,1.68,4.16,4.16,0,0,0,.58,1.45,3.06,3.06,0,0,0,1.07,1A3.25,3.25,0,0,0,242,124.13Z"/><path class="cls-1" d="M261.72,124.06v1.32h-7.94v-11.7h7.79V115h-6.31v3.79h5.49V120h-5.49v4Z"/><path class="cls-1" d="M270.55,116.14a2.45,2.45,0,0,0-.53-.45,4.27,4.27,0,0,0-.74-.38,4.52,4.52,0,0,0-.9-.28,4.17,4.17,0,0,0-1-.11,3.18,3.18,0,0,0-2,.51,1.72,1.72,0,0,0-.64,1.4,1.56,1.56,0,0,0,.19.79,1.44,1.44,0,0,0,.56.53,4.25,4.25,0,0,0,1,.39c.38.11.84.23,1.36.35a13.19,13.19,0,0,1,1.64.45,4.65,4.65,0,0,1,1.26.64,2.57,2.57,0,0,1,.79.92,3,3,0,0,1,.27,1.33,3.06,3.06,0,0,1-.33,1.46,2.94,2.94,0,0,1-.9,1,3.8,3.8,0,0,1-1.34.59,6.92,6.92,0,0,1-1.68.19,7.72,7.72,0,0,1-2.56-.42,7.29,7.29,0,0,1-2.2-1.22l.71-1.26a3.33,3.33,0,0,0,.68.56,5.41,5.41,0,0,0,1,.51,7.38,7.38,0,0,0,1.15.36,6,6,0,0,0,1.29.14,3.58,3.58,0,0,0,1.95-.45,1.47,1.47,0,0,0,.69-1.33,1.45,1.45,0,0,0-.23-.83,1.79,1.79,0,0,0-.65-.59,4.85,4.85,0,0,0-1.06-.43q-.63-.19-1.44-.39a15,15,0,0,1-1.56-.46,4.42,4.42,0,0,1-1.13-.59,2.31,2.31,0,0,1-.69-.84,2.87,2.87,0,0,1-.23-1.19,3.32,3.32,0,0,1,.32-1.48,3.07,3.07,0,0,1,.87-1.09,3.79,3.79,0,0,1,1.33-.67,6.53,6.53,0,0,1,3.82.14,5.82,5.82,0,0,1,1.7,1Z"/><path class="cls-1" d="M273.74,125.38v-11.7h4.88A3.06,3.06,0,0,1,280,114a3.36,3.36,0,0,1,1.12.85,4.14,4.14,0,0,1,.74,1.2,3.82,3.82,0,0,1,.26,1.36,3.9,3.9,0,0,1-.25,1.4,3.76,3.76,0,0,1-.7,1.21,3.26,3.26,0,0,1-1.08.83,3.17,3.17,0,0,1-1.41.32h-3.49v4.2Zm1.49-5.52h3.41a1.78,1.78,0,0,0,.83-.19,1.69,1.69,0,0,0,.63-.53,2.41,2.41,0,0,0,.41-.78,2.89,2.89,0,0,0,.15-.94,2.67,2.67,0,0,0-.17-1,2.72,2.72,0,0,0-.46-.78,2,2,0,0,0-.68-.51,1.91,1.91,0,0,0-.81-.18h-3.31Z"/><path class="cls-1" d="M282,125.38l4.81-11.7H288l4.8,11.7H291.2L289.82,122h-4.91l-1.37,3.43Zm5.42-10-2.17,5.4h4.28Z"/><path class="cls-1" d="M293.61,119.45a6.2,6.2,0,0,1,.37-2.1,5.79,5.79,0,0,1,1.09-1.88,5.44,5.44,0,0,1,1.75-1.34,5.28,5.28,0,0,1,2.36-.51,4.85,4.85,0,0,1,2.68.71,4.32,4.32,0,0,1,1.66,1.84l-1.17.76a3.1,3.1,0,0,0-.63-.94,3.32,3.32,0,0,0-.81-.61,3.84,3.84,0,0,0-.89-.33,4.78,4.78,0,0,0-.91-.1,3.56,3.56,0,0,0-1.72.41,3.89,3.89,0,0,0-1.26,1,4.49,4.49,0,0,0-.77,1.47,5.43,5.43,0,0,0-.25,1.63,5.17,5.17,0,0,0,.3,1.76,5.1,5.1,0,0,0,.85,1.47,4.07,4.07,0,0,0,1.28,1,3.45,3.45,0,0,0,1.62.38,4.54,4.54,0,0,0,.95-.11,3.69,3.69,0,0,0,.93-.37,4.16,4.16,0,0,0,.83-.65,2.83,2.83,0,0,0,.63-.93l1.24.68a3.82,3.82,0,0,1-.78,1.16,5,5,0,0,1-1.14.85,5.73,5.73,0,0,1-1.34.52,5.28,5.28,0,0,1-1.39.19,4.67,4.67,0,0,1-2.2-.53,5.84,5.84,0,0,1-1.74-1.38,6.31,6.31,0,0,1-1.54-4.12Z"/><path class="cls-1" d="M305.6,125.38V113.7h1.48v11.68Z"/><path class="cls-1" d="M314.66,125.46a5,5,0,0,1-2.25-.5,5.48,5.48,0,0,1-1.74-1.34,5.93,5.93,0,0,1-1.12-1.9,6.32,6.32,0,0,1-.39-2.19,6.19,6.19,0,0,1,1.58-4.13,5.51,5.51,0,0,1,1.75-1.31,5,5,0,0,1,2.2-.49,4.77,4.77,0,0,1,2.24.52,5.77,5.77,0,0,1,1.73,1.36,6.15,6.15,0,0,1,1.12,1.9,6.14,6.14,0,0,1-1.18,6.29,5.44,5.44,0,0,1-1.74,1.3A5,5,0,0,1,314.66,125.46Zm-4-5.93a5.26,5.26,0,0,0,.29,1.72,4.74,4.74,0,0,0,.82,1.48,4,4,0,0,0,1.27,1,3.57,3.57,0,0,0,1.64.38,3.43,3.43,0,0,0,1.68-.41,4,4,0,0,0,1.26-1,4.69,4.69,0,0,0,.79-1.48,5,5,0,0,0,.28-1.66,5.26,5.26,0,0,0-.29-1.72,4.63,4.63,0,0,0-.83-1.47,4.1,4.1,0,0,0-1.26-1,3.53,3.53,0,0,0-1.63-.38,3.48,3.48,0,0,0-1.68.4,4.19,4.19,0,0,0-1.26,1,5,5,0,0,0-.8,1.47A5.38,5.38,0,0,0,310.65,119.53Z"/><path class="cls-1" d="M321.63,125.38v-1.85h1.21v1.85Z"/></g></g></svg>