<svg xmlns="http://www.w3.org/2000/svg" viewBox="0 0 98.39 98.39"><defs><style>.cls-1{isolation:isolate;}.cls-2{mix-blend-mode:lighten;}.cls-3{fill:none;}.cls-4{fill:#fff;}</style></defs><g class="cls-1"><g id="Layer_2" data-name="Layer 2"><g id="Capa_1" data-name="Capa 1"><g class="cls-2"><path class="cls-3" d="M16.35,74.93s-.05.08-.07.13-.08.18-.11.27a.59.59,0,0,1,0,.08l0,.1c0,.11-.07.22-.1.32l0,.08A.19.19,0,0,1,16,76c0,.11,0,.23-.07.34s0,.06,0,.09,0,.06,0,.1,0,.19,0,.29a.66.66,0,0,1,0,.14v.12a1.62,1.62,0,0,0,0,.22,1.48,1.48,0,0,0,0,.21v.12a.76.76,0,0,1,0,.15c0,.09,0,.19,0,.29s0,.06,0,.09,0,.07,0,.1,0,.22.07.33a.31.31,0,0,1,0,.08l0,.08c0,.11.06.22.1.33l0,.09a.59.59,0,0,0,0,.08,2.33,2.33,0,0,0,.11.28s0,.08.07.13a.93.93,0,0,0,0,.1l.11.19a.75.75,0,0,0,.07.12c.07.12.15.24.23.35l.14.19a4.48,4.48,0,0,0,.36.4l.1.11.41.35.14.1a3.83,3.83,0,0,0,.42.28l.1.07a5.42,5.42,0,0,0,1.19.49l.13,0a4,4,0,0,0,.5.11l.16,0a4.26,4.26,0,0,0,.61,0h.06a4.08,4.08,0,0,0,.61,0l.16,0a4.64,4.64,0,0,0,.51-.11l.12,0a5.42,5.42,0,0,0,1.19-.49l.1-.06c.15-.09.29-.19.43-.29l.14-.1a4.48,4.48,0,0,0,.4-.36l.11-.1.36-.4.13-.18.24-.36L25.7,80c0-.07.07-.14.11-.2l.05-.11.06-.12.12-.28,0-.09,0-.08c0-.11.08-.22.11-.33a.29.29,0,0,0,0-.09l0-.06c0-.12.05-.23.07-.34a.43.43,0,0,0,0-.11v-.08a2.54,2.54,0,0,0,0-.29s0-.1,0-.15a.41.41,0,0,1,0-.11v-.45a.34.34,0,0,1,0-.1s0-.1,0-.15,0-.2,0-.3v-.08a.3.3,0,0,0,0-.1,3.4,3.4,0,0,0-.07-.34l0-.07s0-.06,0-.09a3,3,0,0,0-.11-.32l0-.09,0-.09-.12-.27-.06-.13-.06-.11a1.74,1.74,0,0,0-.1-.19l-.07-.11q-.12-.19-.24-.36L25.25,74a4.59,4.59,0,0,0-.36-.41l-.09-.1h0c-.13-.12-.26-.24-.4-.35L24.24,73c-.13-.1-.27-.19-.41-.28l-.11-.06a5.07,5.07,0,0,0-1.18-.49l-.14,0-.49-.1-.17,0-.58,0h-.11l-.58,0-.18,0-.48.1-.15,0a5.26,5.26,0,0,0-1.18.49l-.1.06c-.15.09-.28.18-.42.28l-.14.11-.4.34h0l-.1.1A4.59,4.59,0,0,0,17,74l-.14.18c-.08.12-.16.23-.23.35l-.08.12c0,.07-.07.13-.1.2A.31.31,0,0,0,16.35,74.93Z"/><path class="cls-4" d="M92.75,58.1a12.7,12.7,0,0,0,1-2.49,12.13,12.13,0,0,0-1.21-9.24L83.57,30.92a12.24,12.24,0,0,0-10-6.08,12.49,12.49,0,0,0-.4-2.63,12.1,12.1,0,0,0-5.68-7.39L52,5.89A12.15,12.15,0,0,0,40.3,5.65,12.18,12.18,0,0,0,30,0H12.18A12.19,12.19,0,0,0,0,12.18v74A12.19,12.19,0,0,0,12.18,98.39h74A12.19,12.19,0,0,0,98.39,86.21V68.37A12.16,12.16,0,0,0,92.75,58.1Zm2.54,28.11a9.09,9.09,0,0,1-9.08,9.08H38.13a12.16,12.16,0,0,0,3.54-5.51L88,63A12.25,12.25,0,0,0,91,60.65a9.07,9.07,0,0,1,4.32,7.72Zm-92.19,0v-74A9.09,9.09,0,0,1,12.18,3.1H30a9.09,9.09,0,0,1,9.08,9.08v74A9.09,9.09,0,0,1,30,95.29H12.18A9.09,9.09,0,0,1,3.1,86.21ZM50.47,8.58,65.92,17.5a9.09,9.09,0,0,1,3.33,12.4l-27,46.84V12.18a12,12,0,0,0-.58-3.72,9,9,0,0,1,8.85.12ZM90.72,54.81a9,9,0,0,1-4.23,5.51L42.2,85.89v-3L71.93,31.45a12.06,12.06,0,0,0,1.36-3.51,9.11,9.11,0,0,1,7.6,4.53l8.92,15.45A9,9,0,0,1,90.72,54.81Z"/><path class="cls-4" d="M12.69,77.29a8.42,8.42,0,1,0,8.41-8.42A8.42,8.42,0,0,0,12.69,77.29Zm3.89-2.78c.07-.12.15-.23.23-.35L17,74a4.59,4.59,0,0,1,.36-.41l.1-.1h0l.4-.34L18,73c.14-.1.27-.19.42-.28l.1-.06a5.26,5.26,0,0,1,1.18-.49l.15,0,.48-.1.18,0,.58,0h.11l.58,0,.17,0,.49.1.14,0a5.07,5.07,0,0,1,1.18.49l.11.06c.14.09.28.18.41.28l.15.11c.14.11.27.23.4.35h0l.09.1a4.59,4.59,0,0,1,.36.41l.14.18q.12.16.24.36l.07.11a1.74,1.74,0,0,1,.1.19l.06.11.06.13.12.27,0,.09,0,.09a3,3,0,0,1,.11.32s0,.06,0,.09l0,.07a3.4,3.4,0,0,1,.07.34.3.3,0,0,1,0,.1v.08c0,.1,0,.2,0,.3s0,.1,0,.15a.34.34,0,0,0,0,.1v.45a.41.41,0,0,0,0,.11s0,.1,0,.15a2.54,2.54,0,0,1,0,.29v.08a.43.43,0,0,1,0,.11c0,.11,0,.22-.07.34l0,.06a.29.29,0,0,1,0,.09c0,.11-.07.22-.11.33l0,.08,0,.09-.12.28-.06.12-.05.11c0,.06-.07.13-.11.2l-.07.11-.24.36-.13.18-.36.4-.11.1a4.48,4.48,0,0,1-.4.36l-.14.1c-.14.1-.28.2-.43.29l-.1.06a5.42,5.42,0,0,1-1.19.49l-.12,0a4.64,4.64,0,0,1-.51.11l-.16,0a4.08,4.08,0,0,1-.61,0h-.06a4.26,4.26,0,0,1-.61,0l-.16,0a4,4,0,0,1-.5-.11l-.13,0a5.42,5.42,0,0,1-1.19-.49l-.1-.07a3.83,3.83,0,0,1-.42-.28l-.14-.1-.41-.35-.1-.11a4.48,4.48,0,0,1-.36-.4l-.14-.19c-.08-.11-.16-.23-.23-.35a.75.75,0,0,1-.07-.12l-.11-.19a.93.93,0,0,1,0-.1c0-.05-.05-.09-.07-.13a2.33,2.33,0,0,1-.11-.28.59.59,0,0,1,0-.08l0-.09c0-.11-.07-.22-.1-.33l0-.08a.31.31,0,0,0,0-.08c0-.11,0-.22-.07-.33s0-.06,0-.1,0-.06,0-.09,0-.2,0-.29a.76.76,0,0,0,0-.15V77.5a1.48,1.48,0,0,1,0-.21,1.62,1.62,0,0,1,0-.22V77a.66.66,0,0,0,0-.14c0-.1,0-.2,0-.29s0-.07,0-.1,0-.06,0-.09,0-.23.07-.34a.19.19,0,0,0,0-.08l0-.08c0-.1.06-.21.1-.32l0-.1a.59.59,0,0,0,0-.08c0-.09.07-.18.11-.27s0-.09.07-.13a.31.31,0,0,1,0-.1c0-.07.07-.13.1-.2Z"/></g></g></g></g></svg>