<svg xmlns="http://www.w3.org/2000/svg" viewBox="0 0 361.42 300.83"><defs><style>.cls-1{fill:#fff;}.cls-1,.cls-2,.cls-3{fill-rule:evenodd;}.cls-2{fill:#807f80;}.cls-2,.cls-3{opacity:0.5;}.cls-3{fill:#737277;}.cls-4{fill:none;stroke:#030202;stroke-linecap:round;stroke-linejoin:round;stroke-width:0.14px;}</style></defs><g id="Layer_2" data-name="Layer 2"><g id="Capa_1" data-name="Capa 1"><polyline class="cls-1" points="345.21 78.87 345.47 78.94 350.77 78.02 350.77 50.06 351.84 49.84 351.84 278.4 351.84 274.32 346.79 273.99 345.21 274.14 345.21 78.87"/><polyline class="cls-1" points="351.84 278.4 351.84 49.84 361.35 52.83 361.35 277.39 351.84 278.4"/><polyline class="cls-1" points="3.46 69.18 4.86 69.41 4.86 271.8 3.46 271.87 3.46 69.18"/><polyline class="cls-1" points="3.46 271.87 0.07 271.51 0.07 70.26 3.46 69.18 3.46 271.87"/><polyline class="cls-1" points="128.67 285.38 128.67 29.16 130.18 29.54 130.18 60.87 134.69 61.81 134.69 280.33 130.18 280.68 130.18 285.25 128.67 285.38"/><polyline class="cls-1" points="123.26 30.89 128.67 29.16 128.67 285.38 123.26 284.79 123.26 30.89"/><polyline class="cls-1" points="295.33 90.93 295.33 75.87 297.23 75.51 297.23 275.19 295.33 275.06 295.33 259.99 295.33 90.93"/><polyline class="cls-1" points="297.23 71.36 326.65 78.71 326.65 275.94 297.23 278.8 297.23 71.36"/><polyline class="cls-1" points="4.86 69.41 7.26 68.65 7.26 272.05 4.86 271.8 4.86 69.41"/><polyline class="cls-1" points="331.99 77.76 337.26 76.82 345.21 78.87 345.21 274.14 326.65 275.94 326.65 78.71 331.99 77.76"/><polyline class="cls-1" points="7.26 68.65 123.26 31.74 123.26 284.51 7.26 272.05 7.26 68.65"/><polyline class="cls-1" points="134.69 61.81 136.18 62.12 140.15 61.08 140.15 280.6 136.18 280.21 134.69 280.33 134.69 61.81"/><polyline class="cls-1" points="144.49 59.95 155.14 62.23 155.14 66.63 157.55 67.13 157.55 278.33 156.85 278.39 156.28 278.43 155.14 278.52 155.14 282.07 140.15 280.6 140.15 61.08 144.49 59.95"/><polyline class="cls-1" points="157.55 278.33 157.85 278.36 157.15 278.41 156.85 278.39 157.55 278.33"/><polyline class="cls-1" points="156.85 66.99 157.15 66.91 157.85 67.06 157.55 67.13 156.85 66.99"/><polyline class="cls-2" points="156.85 66.99 157.15 66.91 157.85 67.06 157.55 67.13 156.85 66.99"/><polyline class="cls-1" points="207.33 71.89 207.33 265.75 204.15 265.54 204.15 72.59 207.33 71.89"/><polyline class="cls-1" points="216.39 73.85 216.39 265.16 207.33 265.75 207.33 71.89 216.39 73.85"/><polyline class="cls-1" points="287.32 89.57 288.27 89.4 288.27 260.46 287.32 260.41 287.32 89.57"/><polyline class="cls-1" points="288.27 260.46 288.27 89.4 295.33 90.93 295.33 259.99 288.27 260.46"/><polyline class="cls-1" points="207.33 265.75 207.33 283.02 204.15 282.73 204.15 265.54 207.33 265.75"/><polyline class="cls-1" points="216.39 265.04 287.32 260.41 288.27 260.46 216.39 265.16 216.39 265.04"/><polyline class="cls-1" points="207.33 265.75 216.39 265.16 288.27 260.46 295.33 259.99 295.33 275.06 207.33 283.02 207.33 265.75"/><polyline class="cls-1" points="207.33 54.62 207.33 71.89 204.15 72.59 204.15 55.4 207.33 54.62"/><polyline class="cls-3" points="207.33 54.62 207.33 71.89 204.15 72.59 204.15 55.4 207.33 54.62"/><polyline class="cls-1" points="288.27 89.4 287.32 89.57 216.39 74.26 216.39 73.85 288.27 89.4"/><polyline class="cls-3" points="288.27 89.4 287.32 89.57 216.39 74.26 216.39 73.85 288.27 89.4"/><polyline class="cls-1" points="207.33 71.89 207.33 54.62 295.33 75.87 295.33 90.93 288.27 89.4 216.39 73.85 207.33 71.89"/><polyline class="cls-3" points="207.33 71.89 207.33 54.62 295.33 75.87 295.33 90.93 288.27 89.4 216.39 73.85 207.33 71.89"/><polyline class="cls-1" points="216.39 74.26 287.32 89.57 287.32 260.41 216.39 265.04 216.39 74.26"/><polyline class="cls-1" points="197.64 74.32 204.15 72.89 204.15 265.45 197.64 265.02 197.64 74.32"/><polyline class="cls-1" points="164.76 81.52 165.81 81.72 165.81 262.78 164.76 262.84 164.76 81.52"/><polyline class="cls-1" points="164.76 262.84 157.55 262.36 157.55 83.1 164.76 81.52 164.76 262.84"/><polyline class="cls-1" points="165.81 262.78 197.64 264.88 197.64 265.02 164.76 262.84 165.81 262.78"/><polyline class="cls-1" points="164.76 262.84 197.64 265.02 204.15 265.45 204.15 282.6 157.55 278.33 157.55 262.36 164.76 262.84"/><polyline class="cls-1" points="197.64 74.32 197.64 74.77 165.81 81.72 164.76 81.52 197.64 74.32"/><polyline class="cls-3" points="197.64 74.32 197.64 74.77 165.81 81.72 164.76 81.52 197.64 74.32"/><polyline class="cls-1" points="204.15 55.74 204.15 72.89 197.64 74.32 164.76 81.52 157.55 83.1 157.55 67.13 204.15 55.74"/><polyline class="cls-3" points="204.15 55.74 204.15 72.89 197.64 74.32 164.76 81.52 157.55 83.1 157.55 67.13 204.15 55.74"/><polyline class="cls-1" points="165.81 81.72 197.64 74.77 197.64 264.88 165.81 262.78 165.81 81.72"/><polyline class="cls-1" points="155.14 278.52 156.28 278.43 156.85 278.39 157.15 278.41 157.85 278.36 204.15 282.6 204.15 282.73 207.33 283.02 295.33 275.06 297.23 275.19 207.54 283.36 155.14 278.52"/><polyline class="cls-1" points="155.14 278.52 207.54 283.36 207.54 287.2 155.14 282.07 155.14 278.52"/><polyline class="cls-1" points="207.54 283.36 297.23 275.19 297.23 278.8 209.12 287.36 207.54 287.2 207.54 283.36"/><polyline class="cls-1" points="130.18 280.68 208.3 288.47 208.3 293.63 130.18 285.25 130.18 280.68"/><polyline class="cls-1" points="130.18 280.68 134.69 280.33 136.18 280.21 209.12 287.36 346.79 273.99 351.84 274.32 208.3 288.47 130.18 280.68"/><polyline class="cls-1" points="208.3 288.47 351.84 274.32 351.84 278.4 208.3 293.63 208.3 288.47"/><polyline class="cls-1" points="155.14 62.23 207.54 48.96 207.54 53.73 155.14 66.63 155.14 62.23"/><polyline class="cls-3" points="155.14 62.23 207.54 48.96 207.54 53.73 155.14 66.63 155.14 62.23"/><polyline class="cls-1" points="207.54 48.96 297.23 71.36 297.23 75.51 207.54 53.73 207.54 48.96"/><polyline class="cls-3" points="207.54 48.96 297.23 71.36 297.23 75.51 207.54 53.73 207.54 48.96"/><polyline class="cls-1" points="155.14 66.63 207.54 53.73 297.23 75.51 295.33 75.87 207.33 54.62 204.15 55.4 204.15 55.74 157.85 67.06 157.15 66.91 156.85 66.99 155.14 66.63"/><polyline class="cls-3" points="155.14 66.63 207.54 53.73 297.23 75.51 295.33 75.87 207.33 54.62 204.15 55.4 204.15 55.74 157.85 67.06 157.15 66.91 156.85 66.99 155.14 66.63"/><polyline class="cls-1" points="207.19 5.04 207.19 40.38 201.67 41.85 201.67 6.8 207.19 5.04"/><polyline class="cls-1" points="207.19 5.04 350.77 50.06 350.77 78.02 207.19 40.38 207.19 5.04"/><polyline class="cls-1" points="207.19 40.38 350.77 78.02 345.47 78.94 201.67 41.85 207.19 40.38"/><polyline class="cls-3" points="207.19 40.38 350.77 78.02 345.47 78.94 201.67 41.85 207.19 40.38"/><polyline class="cls-1" points="130.18 60.87 201.67 41.85 207.75 43.42 136.18 62.12 134.69 61.81 130.18 60.87"/><polyline class="cls-3" points="130.18 60.87 201.67 41.85 207.75 43.42 136.18 62.12 134.69 61.81 130.18 60.87"/><polyline class="cls-1" points="201.67 6.8 201.67 41.85 130.18 60.87 130.18 29.54 201.67 6.8"/><polyline class="cls-1" points="3.46 69.18 123.26 30.89 123.26 31.74 4.86 69.41 3.46 69.18"/><polyline class="cls-3" points="3.46 69.18 123.26 30.89 123.26 31.74 4.86 69.41 3.46 69.18"/><polyline class="cls-1" points="0.07 70.26 0.07 67.39 206.76 0.07 206.76 4.21 0.07 70.26"/><polyline class="cls-1" points="206.76 4.21 351.84 49.84 350.77 50.06 207.19 5.04 130.18 29.54 128.67 29.16 206.76 4.21"/><polyline class="cls-3" points="206.76 4.21 351.84 49.84 350.77 50.06 207.19 5.04 130.18 29.54 128.67 29.16 206.76 4.21"/><polyline class="cls-1" points="206.76 0.07 361.35 49.62 361.35 52.83 206.76 4.21 206.76 0.07"/><polyline class="cls-1" points="144.49 59.95 207.75 43.42 337.26 76.82 331.99 77.76 326.65 78.71 305.67 73.47 207.54 48.96 155.14 62.23 144.49 59.95"/><polyline class="cls-3" points="144.49 59.95 207.75 43.42 337.26 76.82 331.99 77.76 326.65 78.71 305.67 73.47 207.54 48.96 155.14 62.23 144.49 59.95"/><polyline class="cls-1" points="9.87 277.23 9.87 276.97 210.12 300.4 210.12 300.76 9.87 277.23"/><polyline class="cls-1" points="12.19 272.58 123.26 284.51 123.26 284.79 128.67 285.38 130.18 285.25 208.3 293.63 210.26 293.43 210.26 300.02 12.19 276.96 12.19 272.58"/><polyline class="cls-3" points="12.19 272.58 123.26 284.51 123.26 284.79 128.67 285.38 130.18 285.25 208.3 293.63 210.26 293.43 210.26 300.02 12.19 276.96 12.19 272.58"/><polyline class="cls-1" points="12.19 276.96 210.26 300.02 210.12 300.4 9.87 276.97 12.19 276.96"/><polyline class="cls-1" points="210.12 300.4 354.15 283.65 354.15 283.94 210.12 300.76 210.12 300.4"/><polyline class="cls-1" points="210.26 300.02 210.26 293.43 351.61 278.43 351.61 283.66 210.26 300.02"/><polyline class="cls-3" points="210.26 300.02 210.26 293.43 351.61 278.43 351.61 283.66 210.26 300.02"/><polyline class="cls-1" points="210.12 300.4 210.26 300.02 351.61 283.66 354.15 283.65 210.12 300.4"/><polyline class="cls-1" points="12.19 276.83 12.19 276.96 9.87 276.97 12.19 276.83"/><polyline class="cls-2" points="12.19 276.83 12.19 276.96 9.87 276.97 12.19 276.83"/><polyline class="cls-1" points="351.61 283.66 351.61 283.46 354.15 283.65 351.61 283.66"/><polyline class="cls-3" points="345.21 78.87 345.47 78.94 350.77 78.02 345.21 86.44 345.21 78.87"/><polyline class="cls-3" points="350.77 50.06 351.84 49.84 350.77 51.49 350.77 50.06"/><polyline class="cls-3" points="4.86 69.41 4.86 72.94 3.46 69.18 4.86 69.41"/><polyline class="cls-3" points="130.18 29.54 130.18 60.87 130.18 60.87 130.18 34 128.67 29.16 130.18 29.54"/><polyline class="cls-2" points="130.18 280.68 130.18 285.25 130.18 280.68"/><polyline class="cls-3" points="134.69 61.81 134.69 75.1 130.18 60.87 134.69 61.81"/><polyline class="cls-3" points="295.33 75.87 297.23 75.51 297.23 110.98 295.33 113.97 295.33 75.87"/><polyline class="cls-3" points="297.23 71.36 326.65 78.71 326.65 116.38 297.23 110.98 297.23 71.36"/><polyline class="cls-3" points="4.86 69.41 7.26 68.65 7.26 72.19 4.86 72.94 4.86 69.41"/><polyline class="cls-3" points="337.26 76.82 345.21 78.87 345.21 274.14 343.06 274.35 343.06 91.55 326.65 116.38 326.65 78.71 337.26 76.82"/><polyline class="cls-3" points="7.26 68.65 123.26 31.74 123.26 284.51 122.39 284.41 122.39 36.42 7.26 72.19 7.26 68.65"/><polyline class="cls-3" points="136.18 62.12 140.15 61.08 140.15 96.38 134.69 79.17 134.69 61.81 136.18 62.12"/><polyline class="cls-3" points="144.49 59.95 155.14 62.23 155.14 66.63 157.55 67.13 157.55 151.28 140.15 96.38 140.15 61.08 144.49 59.95"/><polyline class="cls-3" points="207.33 71.89 207.33 98.31 204.15 104.06 204.15 72.59 207.33 71.89"/><polyline class="cls-3" points="207.33 71.89 216.39 73.85 216.39 99.92 207.33 98.31 207.33 71.89"/><polyline class="cls-3" points="288.27 89.4 288.27 112.72 287.32 114.23 287.32 89.57 288.27 89.4"/><polyline class="cls-3" points="288.27 112.72 288.27 89.4 295.33 90.93 295.33 113.97 288.27 112.72"/><polyline class="cls-3" points="287.32 89.57 287.32 114.23 216.39 101.8 216.39 74.26 287.32 89.57"/><polyline class="cls-3" points="204.15 72.89 204.15 265.45 203.44 265.4 203.44 106.72 197.64 117.2 197.64 74.32 204.15 72.89"/><polyline class="cls-3" points="164.76 81.52 165.81 81.72 165.81 153.82 164.76 150.48 164.76 81.52"/><polyline class="cls-3" points="164.76 81.52 164.76 150.48 157.55 151.28 157.55 83.1 164.76 81.52"/><polyline class="cls-2" points="197.64 265.02 196.63 264.81 197.64 264.88 197.64 265.02"/><polyline class="cls-2" points="203.44 265.4 204.15 265.45 204.15 282.6 203.44 282.54 203.44 265.4"/><polyline class="cls-3" points="165.81 81.72 197.64 74.77 197.64 264.88 196.63 264.81 196.63 121.07 179.22 152.41 165.81 153.82 165.81 81.72"/><polyline class="cls-2" points="204.15 282.73 203.44 282.54 204.15 282.6 204.15 282.73"/><polyline class="cls-3" points="201.67 6.8 207.19 5.04 207.19 6.85 205.21 10.69 201.67 11.79 201.67 6.8"/><polyline class="cls-3" points="207.19 5.04 350.77 50.06 350.77 51.49 207.19 6.85 207.19 5.04"/><polyline class="cls-3" points="130.18 29.54 201.67 6.8 201.67 11.79 130.18 34 130.18 29.54"/><polyline class="cls-3" points="9.87 277.23 9.87 276.97 209.17 300.29 208.95 300.62 9.87 277.23"/><polyline class="cls-3" points="9.87 276.97 12.19 276.96 210.26 300.02 210.2 300.17 209.17 300.29 9.87 276.97"/><polyline class="cls-3" points="210.2 300.17 210.26 300.02 351.61 283.66 352.59 283.66 348.7 284.11 210.2 300.17"/><polyline class="cls-3" points="351.61 283.46 353.24 283.58 352.59 283.66 351.61 283.66 351.61 283.46"/><line class="cls-4" x1="345.21" y1="274.14" x2="345.21" y2="78.87"/><line class="cls-4" x1="351.84" y1="278.4" x2="351.84" y2="49.84"/><line class="cls-4" x1="350.77" y1="50.06" x2="351.84" y2="49.84"/><line class="cls-4" x1="351.84" y1="278.4" x2="361.35" y2="277.39"/><line class="cls-4" x1="361.35" y1="277.39" x2="361.35" y2="52.83"/><line class="cls-4" x1="3.46" y1="271.87" x2="4.86" y2="271.8"/><line class="cls-4" x1="4.86" y1="271.8" x2="4.86" y2="69.41"/><line class="cls-4" x1="3.46" y1="69.18" x2="4.86" y2="69.41"/><line class="cls-4" x1="3.46" y1="271.87" x2="3.46" y2="69.18"/><line class="cls-4" x1="0.07" y1="271.51" x2="0.07" y2="70.26"/><line class="cls-4" x1="0.07" y1="271.51" x2="3.46" y2="271.87"/><line class="cls-4" x1="134.69" y1="280.33" x2="134.69" y2="61.81"/><line class="cls-4" x1="123.26" y1="30.89" x2="128.67" y2="29.16"/><line class="cls-4" x1="128.67" y1="29.16" x2="130.18" y2="29.54"/><line class="cls-4" x1="128.67" y1="285.38" x2="128.67" y2="29.16"/><line class="cls-4" x1="128.67" y1="285.38" x2="130.18" y2="285.25"/><line class="cls-4" x1="123.26" y1="284.79" x2="128.67" y2="285.38"/><line class="cls-4" x1="123.26" y1="284.79" x2="123.26" y2="30.89"/><line class="cls-4" x1="297.23" y1="71.36" x2="326.65" y2="78.71"/><line class="cls-4" x1="297.23" y1="75.51" x2="297.23" y2="275.19"/><line class="cls-4" x1="326.65" y1="78.71" x2="326.65" y2="275.94"/><line class="cls-4" x1="7.26" y1="272.05" x2="4.86" y2="271.8"/><line class="cls-4" x1="4.86" y1="69.41" x2="7.26" y2="68.65"/><line class="cls-4" x1="7.26" y1="68.65" x2="123.26" y2="31.74"/><line class="cls-4" x1="7.26" y1="272.05" x2="123.26" y2="284.51"/><line class="cls-4" x1="144.49" y1="59.95" x2="155.14" y2="62.23"/><line class="cls-4" x1="207.33" y1="71.89" x2="207.33" y2="265.75"/><line class="cls-4" x1="216.39" y1="265.16" x2="216.39" y2="73.85"/><line class="cls-4" x1="204.15" y1="72.59" x2="204.15" y2="265.54"/><line class="cls-4" x1="216.39" y1="265.04" x2="287.32" y2="260.41"/><line class="cls-4" x1="287.32" y1="260.41" x2="287.32" y2="89.57"/><line class="cls-4" x1="287.32" y1="89.57" x2="216.39" y2="74.26"/><line class="cls-4" x1="216.39" y1="264.87" x2="286.06" y2="260.34"/><line class="cls-4" x1="286.06" y1="260.34" x2="286.06" y2="89.79"/><line class="cls-4" x1="286.06" y1="89.79" x2="216.39" y2="74.81"/><line class="cls-4" x1="295.33" y1="259.99" x2="295.33" y2="90.93"/><line class="cls-4" x1="288.27" y1="89.4" x2="288.27" y2="260.46"/><line class="cls-4" x1="285.12" y1="89.95" x2="285.12" y2="260.29"/><line class="cls-4" x1="207.33" y1="265.75" x2="207.33" y2="283.02"/><line class="cls-4" x1="207.33" y1="283.02" x2="295.33" y2="275.05"/><line class="cls-4" x1="295.33" y1="275.05" x2="295.33" y2="259.99"/><line class="cls-4" x1="288.27" y1="260.46" x2="216.39" y2="265.16"/><line class="cls-4" x1="204.15" y1="265.54" x2="204.15" y2="282.73"/><line class="cls-4" x1="285.12" y1="260.29" x2="216.39" y2="264.75"/><line class="cls-4" x1="207.33" y1="283.02" x2="204.15" y2="282.73"/><line class="cls-4" x1="288.27" y1="260.46" x2="285.12" y2="260.29"/><line class="cls-4" x1="295.33" y1="90.93" x2="295.33" y2="75.87"/><line class="cls-4" x1="295.33" y1="75.87" x2="207.33" y2="54.62"/><line class="cls-4" x1="207.33" y1="54.62" x2="207.33" y2="71.89"/><line class="cls-4" x1="216.39" y1="73.85" x2="288.27" y2="89.4"/><line class="cls-4" x1="204.15" y1="55.4" x2="204.15" y2="72.59"/><line class="cls-4" x1="216.39" y1="75.21" x2="285.12" y2="89.95"/><line class="cls-4" x1="288.27" y1="89.4" x2="285.12" y2="89.95"/><line class="cls-4" x1="207.33" y1="54.62" x2="204.15" y2="55.4"/><line class="cls-4" x1="156.85" y1="278.39" x2="157.55" y2="278.33"/><line class="cls-4" x1="157.15" y1="278.41" x2="156.85" y2="278.39"/><line class="cls-4" x1="157.85" y1="278.36" x2="157.15" y2="278.41"/><line class="cls-4" x1="157.15" y1="66.91" x2="157.85" y2="67.06"/><line class="cls-4" x1="157.15" y1="66.91" x2="156.85" y2="66.99"/><line class="cls-4" x1="157.55" y1="67.13" x2="156.85" y2="66.99"/><line class="cls-4" x1="168.25" y1="82.19" x2="168.25" y2="262.64"/><line class="cls-4" x1="157.55" y1="262.36" x2="157.55" y2="83.1"/><line class="cls-4" x1="164.76" y1="81.52" x2="164.76" y2="262.84"/><line class="cls-4" x1="197.64" y1="264.7" x2="167.2" y2="262.7"/><line class="cls-4" x1="167.2" y1="262.7" x2="167.2" y2="81.99"/><line class="cls-4" x1="167.2" y1="81.99" x2="197.64" y2="75.37"/><line class="cls-4" x1="197.64" y1="264.88" x2="165.81" y2="262.78"/><line class="cls-4" x1="165.81" y1="262.78" x2="165.81" y2="81.72"/><line class="cls-4" x1="165.81" y1="81.72" x2="197.64" y2="74.77"/><line class="cls-4" x1="197.64" y1="265.02" x2="197.64" y2="74.32"/><line class="cls-4" x1="168.25" y1="262.64" x2="197.64" y2="264.57"/><line class="cls-4" x1="204.15" y1="282.6" x2="157.55" y2="278.33"/><line class="cls-4" x1="157.55" y1="278.33" x2="157.55" y2="262.36"/><line class="cls-4" x1="164.76" y1="262.84" x2="197.64" y2="265.02"/><line class="cls-4" x1="168.25" y1="262.64" x2="164.76" y2="262.84"/><line class="cls-4" x1="197.64" y1="75.82" x2="168.25" y2="82.19"/><line class="cls-4" x1="157.55" y1="83.1" x2="157.55" y2="67.13"/><line class="cls-4" x1="157.55" y1="67.13" x2="204.15" y2="55.74"/><line class="cls-4" x1="197.64" y1="74.32" x2="164.76" y2="81.52"/><line class="cls-4" x1="168.25" y1="82.19" x2="164.76" y2="81.52"/><line class="cls-4" x1="156.85" y1="278.39" x2="155.14" y2="278.52"/><line class="cls-4" x1="155.14" y1="278.52" x2="207.54" y2="283.36"/><line class="cls-4" x1="207.54" y1="283.36" x2="297.23" y2="275.19"/><line class="cls-4" x1="297.23" y1="275.19" x2="295.33" y2="275.05"/><line class="cls-4" x1="197.64" y1="264.13" x2="168.25" y2="262.23"/><line class="cls-4" x1="155.14" y1="282.07" x2="155.14" y2="278.52"/><line class="cls-4" x1="207.54" y1="287.2" x2="207.54" y2="283.36"/><line class="cls-4" x1="297.23" y1="278.8" x2="297.23" y2="275.19"/><line class="cls-4" x1="209.11" y1="287.36" x2="136.18" y2="280.21"/><line class="cls-4" x1="346.79" y1="273.99" x2="209.11" y2="287.36"/><line class="cls-4" x1="136.18" y1="280.21" x2="134.69" y2="280.33"/><line class="cls-4" x1="134.69" y1="280.33" x2="130.18" y2="280.68"/><line class="cls-4" x1="130.18" y1="280.68" x2="208.3" y2="288.47"/><line class="cls-4" x1="208.3" y1="288.47" x2="351.84" y2="274.32"/><line class="cls-4" x1="351.84" y1="274.32" x2="346.79" y2="273.99"/><line class="cls-4" x1="208.3" y1="293.63" x2="351.84" y2="278.4"/><line class="cls-4" x1="130.18" y1="285.25" x2="208.3" y2="293.63"/><line class="cls-4" x1="130.18" y1="285.25" x2="130.18" y2="280.68"/><line class="cls-4" x1="351.84" y1="278.4" x2="351.84" y2="274.32"/><line class="cls-4" x1="208.3" y1="293.63" x2="208.3" y2="288.47"/><line class="cls-4" x1="155.14" y1="62.23" x2="207.54" y2="48.96"/><line class="cls-4" x1="207.54" y1="48.96" x2="297.23" y2="71.36"/><line class="cls-4" x1="156.85" y1="66.99" x2="155.14" y2="66.63"/><line class="cls-4" x1="155.14" y1="66.63" x2="155.14" y2="62.23"/><line class="cls-4" x1="155.14" y1="66.63" x2="207.54" y2="53.73"/><line class="cls-4" x1="207.54" y1="53.73" x2="207.54" y2="48.96"/><line class="cls-4" x1="207.54" y1="53.73" x2="297.23" y2="75.51"/><line class="cls-4" x1="297.23" y1="75.51" x2="297.23" y2="71.36"/><line class="cls-4" x1="297.23" y1="75.51" x2="295.33" y2="75.87"/><line class="cls-4" x1="284.86" y1="89.89" x2="216.39" y2="101.75"/><line class="cls-4" x1="197.64" y1="105" x2="168.25" y2="110.08"/><line class="cls-4" x1="207.18" y1="5.05" x2="350.77" y2="50.06"/><line class="cls-4" x1="201.67" y1="6.8" x2="207.18" y2="5.05"/><line class="cls-4" x1="207.18" y1="40.38" x2="201.67" y2="41.85"/><line class="cls-4" x1="207.18" y1="5.05" x2="207.18" y2="40.38"/><line class="cls-4" x1="207.18" y1="40.38" x2="350.77" y2="78.02"/><line class="cls-4" x1="350.77" y1="50.06" x2="350.77" y2="78.02"/><line class="cls-4" x1="350.77" y1="78.02" x2="345.47" y2="78.94"/><line class="cls-4" x1="207.75" y1="43.42" x2="345.47" y2="78.94"/><line class="cls-4" x1="130.18" y1="29.54" x2="201.67" y2="6.8"/><line class="cls-4" x1="136.18" y1="62.12" x2="207.75" y2="43.42"/><line class="cls-4" x1="134.69" y1="61.81" x2="136.18" y2="62.12"/><line class="cls-4" x1="130.18" y1="60.87" x2="134.69" y2="61.81"/><line class="cls-4" x1="130.18" y1="29.54" x2="130.18" y2="60.87"/><line class="cls-4" x1="130.18" y1="60.87" x2="201.67" y2="41.85"/><line class="cls-4" x1="0.07" y1="70.26" x2="0.07" y2="67.38"/><line class="cls-4" x1="0.07" y1="70.26" x2="123.26" y2="30.89"/><line class="cls-4" x1="128.67" y1="29.16" x2="206.76" y2="4.21"/><line class="cls-4" x1="206.76" y1="4.21" x2="206.76" y2="0.07"/><line class="cls-4" x1="0.07" y1="67.38" x2="206.76" y2="0.07"/><line class="cls-4" x1="206.76" y1="0.07" x2="361.35" y2="49.62"/><line class="cls-4" x1="206.76" y1="4.21" x2="361.35" y2="52.83"/><line class="cls-4" x1="361.35" y1="52.83" x2="361.35" y2="49.62"/><line class="cls-4" x1="326.65" y1="78.71" x2="337.26" y2="76.82"/><line class="cls-4" x1="210.12" y1="300.76" x2="9.87" y2="277.23"/><line class="cls-4" x1="210.12" y1="300.4" x2="9.87" y2="276.97"/><line class="cls-4" x1="9.87" y1="277.23" x2="9.87" y2="276.97"/><line class="cls-4" x1="12.19" y1="276.97" x2="12.19" y2="272.58"/><line class="cls-4" x1="210.26" y1="300.03" x2="12.19" y2="276.97"/><line class="cls-4" x1="354.15" y1="283.94" x2="210.12" y2="300.76"/><line class="cls-4" x1="351.61" y1="283.66" x2="351.61" y2="278.43"/><line class="cls-4" x1="354.15" y1="283.94" x2="354.15" y2="283.65"/><line class="cls-4" x1="354.15" y1="283.65" x2="210.12" y2="300.4"/><line class="cls-4" x1="210.12" y1="300.76" x2="210.12" y2="300.4"/><line class="cls-4" x1="210.26" y1="300.03" x2="210.26" y2="293.43"/><line class="cls-4" x1="351.61" y1="283.66" x2="210.26" y2="300.03"/><line class="cls-4" x1="12.19" y1="276.83" x2="9.87" y2="276.97"/><line class="cls-4" x1="354.15" y1="283.65" x2="351.61" y2="283.46"/></g></g></svg>