<svg xmlns="http://www.w3.org/2000/svg" viewBox="0 0 99.17 98.39"><defs><style>.cls-1{fill:#fff;}</style></defs><g id="Layer_2" data-name="Layer 2"><g id="Capa_1" data-name="Capa 1"><path class="cls-1" d="M99.17,54.13a5.53,5.53,0,0,1-5.45,5.54L73.85,88.46a2.85,2.85,0,0,1-2.11,1.23l2.75,6.07a1.86,1.86,0,1,1-3.38,1.54l-3.45-7.59h-48L16.2,97.3a1.87,1.87,0,0,1-1.7,1.09,2,2,0,0,1-.76-.16,1.88,1.88,0,0,1-.92-2.47l2.74-6.05h-.25a2.91,2.91,0,0,1-2.81-2.23L5.65,59.67H5.54a5.54,5.54,0,0,1,0-11.08H8.78V10.84A10.76,10.76,0,0,1,12,3.17a10.87,10.87,0,0,1,15.35,0L31,6.9a6.81,6.81,0,0,1,8.81.68,1,1,0,0,1,.29.67.89.89,0,0,1-.29.66l-9.42,9.43a1,1,0,0,1-1.34,0,6.78,6.78,0,0,1-2-4.82,6.68,6.68,0,0,1,1.32-4L24.66,5.8a7.12,7.12,0,0,0-12.16,5V38.7h4.33v-1a1.86,1.86,0,0,1,3.72,0v5.63a1.86,1.86,0,1,1-3.72,0v-.95H12.5v6.17H93.62A5.55,5.55,0,0,1,99.17,54.13Z"/></g></g></svg>