<?xml version="1.0" encoding="utf-8"?>
<!-- Generator: Adobe Illustrator 24.3.0, SVG Export Plug-In . SVG Version: 6.00 Build 0)  -->
<svg version="1.1" id="Capa_1" xmlns="http://www.w3.org/2000/svg" xmlns:xlink="http://www.w3.org/1999/xlink" x="0px" y="0px"
	 viewBox="0 0 182.5 98.4" style="enable-background:new 0 0 182.5 98.4;" xml:space="preserve">
<style type="text/css">
	.st0{fill:#FFFFFF;}
</style>
<g>
	<g id="Layer_2">
		<g id="Capa_1_1_">
			<path class="st0" d="M32,98.4c-9,0-15.7-8.5-15.7-16.2c0-8.2,7.2-15,15.7-15C41.9,67.2,47,75,47,82.8C47,91.5,40.4,98.4,32,98.4z
				 M32,68.9C24.4,68.9,18,75,18,82.3c0,6.8,6,14.5,14.1,14.5c7.4,0,13.3-6.2,13.3-13.9C45.3,75.9,40.8,68.9,32,68.9L32,68.9z"/>
			<path class="st0" d="M31.8,89.6c-3.9,0-6.8-3.7-6.8-7c0.1-3.7,3.2-6.6,6.8-6.5c4.3,0,6.5,3.4,6.5,6.8c0.1,3.6-2.7,6.6-6.4,6.8
				C31.9,89.6,31.9,89.6,31.8,89.6z M31.8,77.7c-2.8,0-5,2.1-5.1,4.9c0,2.5,2.2,5.3,5.1,5.3c2.7,0,4.9-2.3,4.8-5c0,0,0-0.1,0-0.1
				C36.6,80.3,35.1,77.7,31.8,77.7z"/>
			<path class="st0" d="M142.3,98.4c-9,0-15.7-8.5-15.7-16.2c0-8.2,7.2-15,15.7-15c9.8,0,14.9,7.8,14.9,15.6
				C157.3,91.5,150.7,98.4,142.3,98.4z M142.3,68.9c-7.6,0-14.1,6.2-14.1,13.4c0,6.8,6,14.5,14.1,14.5c7.4,0,13.3-6.2,13.3-13.9
				C155.6,75.9,151.1,68.9,142.3,68.9z"/>
			<path class="st0" d="M142.1,89.6c-3.9,0-6.8-3.7-6.8-7c0.1-3.7,3.2-6.6,6.8-6.5c4.3,0,6.5,3.4,6.5,6.8c0.1,3.6-2.7,6.6-6.4,6.8
				C142.2,89.6,142.2,89.6,142.1,89.6z M142.1,77.7c-2.8,0-5,2.1-5.2,4.9c0,2.5,2.2,5.3,5.2,5.3c2.7,0,4.9-2.3,4.8-5
				c0,0,0-0.1,0-0.1C147,80.3,145.4,77.7,142.1,77.7z"/>
			<path class="st0" d="M169.9,84.3c-10.3,0-11-0.7-11.3-0.9c-0.1-0.2-0.2-0.4-0.2-0.6c-0.2-9.5-4.8-15.5-12.7-16.9
				c-1.6-0.3-3.2-0.4-4.8-0.4c-2.8,0-5.5,0.4-8.2,1.2l-0.5,0.1H132c-0.3,0-0.6-0.2-0.7-0.4c-0.2-0.3-0.6-1-0.9-21.4
				c0-3.4-0.2-20.3,0.2-21.2c0.2-0.6,0.5-1,13-1c4.4,0,9.6,0.1,13.9,0.2c7.4,0.2,7.5,0.3,7.7,0.9c0.2,1.1,0.3,2.2,0.3,3.3
				c5.5,9.4,14.7,25.2,14.8,26.3c0.1,1.1,0,16.8,0,20.8c0.4,0,0.8,0.1,1.2,0.2c0.8,0.2,1,0.8,0.9,4.3c-0.1,1.7-0.2,3.6-0.3,4.1
				C182.1,83.6,182,84.3,169.9,84.3z M160,82.2c1,0.2,4.1,0.5,9.8,0.5c3.6,0.1,7.2-0.1,10.8-0.5c0.2-2,0.3-4.1,0.2-6.2
				c-0.5-0.1-1.1-0.2-1.4-0.2c-0.4,0-0.8-0.4-0.8-0.8c0.1-8,0.1-20.1,0-21.3c-0.5-1.5-9.1-16.3-14.7-25.9c-0.1-0.1-0.1-0.2-0.1-0.4
				c0-0.9-0.1-2-0.2-2.6c-2.3-0.2-11.6-0.4-20.1-0.4c-8.1,0-10.7,0.2-11.5,0.3c-0.2,4.1,0,34.9,0.6,40.2c2.7-0.7,5.4-1.1,8.2-1.1
				c1.7,0,3.4,0.1,5.1,0.4C151,65.2,159.5,68.7,160,82.2z"/>
			<path class="st0" d="M137.1,49L137.1,49c-2,0-3.3-0.1-3.3-1.2c0-0.1,0-0.5,0-1.1c-0.1-15.6,0-16,0-16.2c0.1-0.9,1.1-1.1,3.8-1.1
				c4.8,0,5,0.6,5.1,1c0,0.1,1.3,15.5,0.1,17.6c-0.1,0.3-0.4,0.5-0.7,0.6C140.5,48.9,138.8,49,137.1,49z M135.5,47.3
				c0.5,0.1,1.1,0.1,1.6,0.1l0,0c1.5,0,2.9-0.1,4.4-0.2c0.5-2.1,0-13.2-0.3-15.8c-1.2-0.2-2.4-0.2-3.6-0.2c-0.7,0-1.5,0-2.2,0.1
				c0,1.1,0,5,0,15.5L135.5,47.3z"/>
			<path class="st0" d="M165.6,49.3L165.6,49.3c-3,0-7.2-0.1-10.8-0.2c-2.9-0.1-5.6-0.1-7.2-0.1c-0.9,0-1.1,0-1.2,0
				c-0.3,0.1-0.7,0-0.9-0.3c-0.3-0.3-0.6-0.7-0.4-9.2c0.1-4,0.2-8.2,0.3-8.6c0.1-0.7,0.2-1.4,8.6-1.4s8.9,0.7,9.1,1
				c0.5,0.6,2.9,5.7,4.3,8.8c3.8,8.4,3.5,8.9,3.3,9.3C170.4,49,170.2,49.3,165.6,49.3z M147.6,47.3c1.5,0,4.2,0.1,7.2,0.1
				c3.6,0.1,7.8,0.2,10.8,0.2l0,0c1.9,0,2.9,0,3.4-0.1c-0.9-2.9-6.2-14.4-7.1-15.9c-0.7-0.2-3.4-0.5-7.9-0.5c-2.3-0.1-4.7,0.1-7,0.4
				c-0.1,2.5-0.5,13.1-0.2,15.8L147.6,47.3z"/>
			<path class="st0" d="M13.3,77.7H0.9c-0.4,0-0.9-0.3-0.9-0.7c0-0.3-0.2-1,2.5-7.8s3.1-7.1,3.4-7.2c0.3-0.1,0.5-0.3,38.6-0.7
				c25-0.3,48.7-0.5,63.5-0.5c19.7,0,19.8,0.2,20.2,0.7c0.2,0.2,0.2,0.5,0.2,0.7c-0.2,0.6-2.3,10.5-3.1,14.2
				c-0.1,0.4-0.4,0.6-0.8,0.7l-75.2,0.7l0,0c-0.4,0-0.7-0.3-0.8-0.6c-0.1-0.4-2.8-10.7-16.2-10.7c-10.4,0-13.7,6.4-15.2,9.4
				c-0.6,1.2-1,1.9-1.7,1.9L13.3,77.7z M2.7,76h5.1H15c0.1-0.2,0.4-0.6,0.5-1c1.6-3.1,5.4-10.3,16.7-10.3C45,64.7,49,73.5,49.9,76
				l73.9-0.7c0.5-2.3,2.1-10.1,2.7-12.7c-1.5-0.1-6.1-0.2-18.5-0.2c-32.4,0-95.9,0.8-101.2,1.1C4.8,67.5,3.2,71.7,1.8,76L2.7,76z"/>
			<path class="st0" d="M127.5,80.5H45.9c-0.5,0-0.8-0.5-0.8-0.9c0-0.4,0.4-0.7,0.8-0.8h81.6c0.5,0,0.8,0.5,0.8,0.9
				C128.2,80.1,127.9,80.4,127.5,80.5z"/>
			<path class="st0" d="M127.5,84.3H46.2c-0.5,0.1-0.9-0.2-1-0.7c-0.1-0.5,0.2-0.9,0.7-1c0.1,0,0.2,0,0.3,0h81.3
				c0.5,0,0.8,0.4,0.8,0.8C128.3,84,127.9,84.4,127.5,84.3L127.5,84.3z"/>
		</g>
	</g>
	<g>
		<path class="st0" d="M49.8,23.5v31.1h23.5h3.4V3.4L73.3,0L49.8,23.5z M73.3,51.2H53.4V24.8L73.3,4.9V51.2z"/>
		<polygon class="st0" points="80,54.6 83.4,54.6 83.4,10.1 80,6.7 		"/>
		<polygon class="st0" points="86.7,54.6 90.1,54.6 90.1,16.8 86.7,13.4 		"/>
		<polygon class="st0" points="93.4,20.1 93.4,54.6 96.8,54.6 96.8,23.5 		"/>
	</g>
</g>
</svg>
