<svg xmlns="http://www.w3.org/2000/svg" viewBox="0 0 104.71 100.83"><defs><style>.cls-1{fill:#fff;}</style></defs><g id="Layer_2" data-name="Layer 2"><g id="Capa_1" data-name="Capa 1"><path class="cls-1" d="M84.05,17.68V0L28.68,55.37H46.36L33.73,68h63V5.05ZM45.71,48.17,77.13,16.75V24.6L53.56,48.17ZM77.13,33.86V48.17H62.81ZM90.4,61.73H49.26l6.35-6.36H84.05V26.94l6.35-6.36Z"/><path class="cls-1" d="M1.78,89.94c.55,2.59,1.89,3.55,4.51,3.55S10,92.15,10,90.7C10,86.33.35,89.42.35,83.47c0-2.5,1.95-4.31,5.3-4.31S11,80.5,11.48,83.91H9.7c-.32-2.33-1.89-3.17-4.08-3.17s-3.41,1.05-3.41,2.59c0,4.11,9.67,1.54,9.67,7.34,0,2.88-2.59,4.4-6.14,4.4S.15,92.79,0,89.94Z"/><path class="cls-1" d="M20.62,94.72a8.81,8.81,0,0,1-2,.35c-1.72,0-2.68-.76-2.68-3V81H13.81V79.57h2.12V75.38h1.75v4.19H20.5V81H17.68V91.37c0,1.48.06,2.12,1.51,2.12a5.87,5.87,0,0,0,1.43-.2Z"/><path class="cls-1" d="M23.59,76.28V73.69h1.92v2.59Zm.09,18.38V79.57h1.75V94.66Z"/><path class="cls-1" d="M30.14,94.66v-21h1.75v21Z"/><path class="cls-1" d="M37.43,87.52c0,3.27,1.71,6,5.06,6A4.43,4.43,0,0,0,47.07,90h2c-.88,2.85-2.68,5-6.53,5-4.83,0-6.93-3.44-6.93-7.9s2.62-8,6.93-8c4.14,0,6.67,3,6.64,8.36Zm9.84-1.45c0-2.95-1.63-5.33-4.78-5.33s-4.71,2.47-5.06,5.33Z"/><path class="cls-1" d="M64.19,79.57h1.75V93.2c0,4-1.34,7.63-7.08,7.63-4.42,0-6.26-2.53-6.38-4.34h1.87c.52,2.28,2.44,2.77,4.51,2.77,4.78,0,5.42-3.55,5.33-7a6.26,6.26,0,0,1-5.39,2.83c-4.6,0-6.72-3.76-6.72-8,0-4.46,2-7.93,6.81-7.93a6.07,6.07,0,0,1,5.24,3.06h.06ZM59.1,80.74c-3,0-5.13,2.12-5.16,5.91s1.54,6.84,5.16,6.84c3.17,0,5.09-2.91,5.09-6.32C64.19,83.53,62.39,80.74,59.1,80.74Z"/><path class="cls-1" d="M72.09,94.66H70.34V79.57h1.75v2.1c1.39-1.49,2.76-2.51,4.86-2.51a5.27,5.27,0,0,1,4.6,2.16,5.74,5.74,0,0,1,.76,3.47v9.87H80.56V84.81c0-2.7-1.11-4.07-3.9-4.07a4.4,4.4,0,0,0-4.2,2.94,7.74,7.74,0,0,0-.37,2.85Z"/><path class="cls-1" d="M85.54,87.12c0-4.4,2.33-8,7-8s7,3.53,7,8c0,4.77-2.76,7.95-7,7.95C88.69,95,85.54,92.39,85.54,87.12Zm7-6.38c-3.67,0-5.12,3.11-5.12,6.38,0,3.75,1.77,6.37,5.12,6.37,3.67,0,5.13-3.14,5.13-6.37C97.63,83.56,96.23,80.74,92.53,80.74Z"/><path class="cls-1" d="M99.87,76.1a2.42,2.42,0,1,1,2.43,2.43A2.42,2.42,0,0,1,99.87,76.1Zm4.45,0a2,2,0,1,0-2,2.11A2,2,0,0,0,104.32,76.1Zm-.82,1.35h-.39l-.78-1.24h-.6v1.24h-.33v-2.7h1.18c.71,0,1,.27,1,.72s-.37.73-.85.74ZM102.23,76c.38,0,1,.06,1-.49s-.35-.47-.68-.47h-.77v1Z"/></g></g></svg>