<svg xmlns="http://www.w3.org/2000/svg" viewBox="0 0 34.88 35.26"><defs><style>.cls-1{fill:#445b5c;}</style></defs><g id="Layer_2" data-name="Layer 2"><g id="Capa_1" data-name="Capa 1"><path class="cls-1" d="M17.7,0A17.18,17.18,0,0,0,.51,17.19,19.84,19.84,0,0,0,3,26.11L0,35.26l9.42-3a17.41,17.41,0,0,0,8.28,2.12A17.19,17.19,0,0,0,17.7,0Zm0,31.62a15.83,15.83,0,0,1-8-2.38L4.31,31l1.76-5.26a16.4,16.4,0,0,1-2.81-8.56A14.44,14.44,0,1,1,17.7,31.62Z"/><path class="cls-1" d="M11.15,10a2.08,2.08,0,0,1,.71-.29h1.35a.75.75,0,0,1,.53.44c.17.38,1.31,3.06,1.4,3.27a1.14,1.14,0,0,1-.05,1.17c-.36.46-1.1,1.32-1.1,1.32a.52.52,0,0,0,0,.69,13.62,13.62,0,0,0,2.32,2.86A11,11,0,0,0,19.6,21.5c.72.24.87-.08,1.15-.43l1.13-1.43a.67.67,0,0,1,.87-.17l3.39,1.63a.46.46,0,0,1,.37.44,3.09,3.09,0,0,1-.77,2.63,5.13,5.13,0,0,1-4.22,1.32,16.43,16.43,0,0,1-6.64-3.24,21.9,21.9,0,0,1-4.74-5.84,5.66,5.66,0,0,1-.66-3C9.53,13,9.76,10.87,11.15,10Z"/></g></g></svg>